<svg width="330" height="561" viewBox="0 0 330 561" fill="none" xmlns="http://www.w3.org/2000/svg">
<g clip-path="url(#clip0_1_2899)">
<path d="M197.5 333.6H191.7L189.3 331.2L187.7 329.6L112.6 253.7L110.6 251.7L110.2 251.2H115.2L197.5 333.6Z" fill="#0080FF"/>
<path d="M177.5 333.6H171.7L169.3 331.2L167.7 329.6L97.1 258.3L95.2 256.3L93.1 254.2L92.6 253.7L90.2 251.2H95.2L177.5 333.6Z" fill="#0080FF"/>
<path d="M217.5 333.6H211.7L209.3 331.2L207.7 329.6L132.6 253.7L130.6 251.7L130.2 251.2H135.2L217.5 333.6Z" fill="#0080FF"/>
<path d="M236.7 334.7V340.6L233.7 337.7V333.6H229.7L227.3 331.2L225.7 329.6L150.6 253.7L148.6 251.7L148.2 251.2H153.2L236.7 334.7Z" fill="#0080FF"/>
<path d="M166.7 251.2L173.9 253.2V251.5L236.7 314.3V310.8V323.3V320.2L168.4 251.2H166.7Z" fill="#0080FF"/>
<path d="M188.2 251.5H193.2H195L236.8 293.3V289.8V302.3V299.2L189.6 251.5H188.2Z" fill="#0080FF"/>
<path d="M210.7 251.5H215.7L235.2 271V267.5V280V277L210 251.5H210.7Z" fill="#0080FF"/>
<path d="M130.8 405.8L134.8 409.8H129.6L125.6 405.8H125.7H130.8Z" fill="#FFB32C"/>
<path d="M209.2 484.2L205.2 486.2L202.3 483.3L172.9 453.6L171.4 452.1L169.9 450.6C170.5 449.4 171.2 448.2 171.9 447L174.8 449.9L208.2 483.3L209.2 484.2Z" fill="#FFB32C"/>
<path d="M110.8 405.8L113.8 408.8C113.4 409.4 112.6 409.8 111.8 409.8H109.6L105.6 405.8H110.8Z" fill="#FFB32C"/>
<path d="M189.2 484.2L185.2 486.2L182.3 483.3L167.4 468.3L165.6 466.5L164.1 465C164.5 463.5 165 462.1 165.5 460.6L167 462.1L168.6 463.7L188.1 483.2L189.2 484.2Z" fill="#FFB32C"/>
<path d="M229.2 484.2L225.2 486.2L224.2 485.2L222.2 483.2L180.6 441.2L179.2 439.7L177.8 438.3C178.6 437.3 179.5 436.3 180.3 435.3L181.7 436.7L225.5 480.5L228.2 483.1L229.2 484.2Z" fill="#FFB32C"/>
<path d="M235.7 472.7V478.6L233.8 476.6L232 475L189.5 432L188.2 430.7L186.7 429.2C187.7 428.3 188.6 427.5 189.6 426.7L191.2 428.4L235.7 472.7Z" fill="#FFB32C"/>
<path d="M235.7 452.3V458.2L233.8 456.2L201.4 423.5L200.4 422.5L198.4 420.5C199.6 419.8 200.7 419.1 202 418.5L204.1 420.6L205 421.5L233.8 450.3L235.7 452.3Z" fill="#FFB32C"/>
<path d="M235.7 431.3V437.2L233.8 435.2L216 417.2L215 416.2L212.8 414C214.2 413.5 215.7 413.1 217.2 412.7L219.3 414.9L220.5 416L235.7 431.3Z" fill="#FFB32C"/>
<path d="M234.2 409V414.9L233.8 414.5L233.6 414.2L231.6 412.2L229.9 410.4C231.2 410.3 232.5 410.2 233.9 410.2V408.5L234.2 409Z" fill="#FFB32C"/>
<path d="M119.5 333.6H113.8L111.5 331.2L109.9 329.6L97.1 316.7L95.2 314.7L93.1 312.7V307.2L119.5 333.6Z" fill="#0080FF"/>
<path d="M147.2 361.2L143.2 363.2L139.3 359.3H145.3L147.2 361.2Z" fill="#0080FF"/>
<path d="M93.8 333.6L93.1 332.9V331.2V327.2L95.2 329.2L97.2 331.2L99.5 333.6H95.2H93.8Z" fill="#0080FF"/>
<path d="M127.2 361.2L123.2 363.2L119.3 359.3H125.3L127.2 361.2Z" fill="#0080FF"/>
<path d="M139.5 333.6H133.8L131.5 331.2L129.9 329.6L97.1 296.5L95.2 294.5L93.1 292.5V287.2L139.5 333.6Z" fill="#0080FF"/>
<path d="M167.2 361.2L163.4 363.1L163.2 363.2L162.8 362.8L162.5 362.5C162.2 362.2 162.1 361.8 162.1 361.4C162.1 360.3 163.2 359.4 164.5 359.4H165.4L167.2 361.2Z" fill="#0080FF"/>
<path d="M157.5 333.6H151.8L149.5 331.2L147.9 329.6L97.1 278.3L95.2 276.3L93.1 274.3V269.2L157.5 333.6Z" fill="#0080FF"/>
<path d="M92.1 384.7C92.1 383.6 93.2 382.7 94.5 382.7H171.7C173 382.7 174 383.6 174 384.7C174 385.8 172.9 386.7 171.7 386.7H94.4C93.1 386.7 92.1 385.8 92.1 384.7Z" fill="white"/>
<path d="M80.3 386.7H57.1L56.1 384.8L66.1 383.9L80.1 382.7H80.2C81.5 382.7 82.6 383.6 82.6 384.7C82.7 385.8 81.6 386.7 80.3 386.7Z" fill="white"/>
<path d="M108 433.1H80.9L78.9 429.1H108C109.3 429.1 110.4 430 110.4 431.1C110.3 432.2 109.3 433.1 108 433.1Z" fill="white"/>
<path d="M149.9 483.3L139.5 487.3H108.6L106.5 483.3H149.9Z" fill="white"/>
<path d="M114.1 407.8C114.1 408.2 114 408.5 113.8 408.8C113.4 409.4 112.6 409.8 111.8 409.8H69L66.9 405.8H111.7C113 405.8 114.1 406.7 114.1 407.8Z" fill="white"/>
<path d="M138.6 407.8C138.6 408.9 137.5 409.8 136.3 409.8H125.8C124.5 409.8 123.4 408.9 123.4 407.8C123.4 406.7 124.4 405.9 125.6 405.8H125.7H136.2C137.5 405.8 138.6 406.7 138.6 407.8Z" fill="white"/>
<path d="M237.2 411.7C236.3 411.7 235.3 411.8 234.2 411.9C234.1 411.9 233.9 411.9 233.8 411.9C233.1 412 232.4 412.1 231.6 412.2C231.2 412.2 230.7 412.3 230.3 412.4C229.8 412.5 229.4 412.5 228.9 412.6C228.5 412.7 228.1 412.7 227.7 412.8H227.6C227.1 412.9 226.6 413 226.1 413.1C225.7 413.2 225.4 413.3 225 413.3C224.7 413.4 224.3 413.4 224 413.5C223.5 413.6 222.9 413.7 222.4 413.9C221.4 414.1 220.4 414.4 219.4 414.7C218.3 415 217.3 415.3 216.2 415.7C215.8 415.8 215.5 415.9 215.1 416.1C214.7 416.2 214.2 416.4 213.8 416.6C213.4 416.7 212.9 416.9 212.5 417.1C212.1 417.3 211.6 417.4 211.2 417.6C210.3 417.9 209.4 418.3 208.5 418.7C208 418.9 207.5 419.1 207 419.4C206.1 419.8 205.3 420.2 204.4 420.6C204.1 420.7 203.8 420.9 203.5 421.1C203.2 421.2 202.9 421.4 202.6 421.6C202 421.9 201.4 422.2 200.8 422.6C199.3 423.4 197.7 424.3 196.2 425.3C195.8 425.5 195.4 425.8 195.1 426C194.5 426.4 194 426.8 193.4 427.1C192.8 427.5 192.3 427.9 191.7 428.3C190.7 429.1 189.7 429.8 188.6 430.7C186.3 432.6 184.1 434.6 182.2 436.8C181.8 437.3 181.3 437.8 180.9 438.3C180.5 438.8 180.1 439.3 179.7 439.8C179.4 440.2 179.1 440.5 178.9 440.9C178.7 441.2 178.5 441.4 178.3 441.7C177.7 442.5 177.1 443.3 176.6 444.2C176.4 444.5 176.2 444.8 176 445.1C176 445.2 175.9 445.3 175.9 445.3C175.6 445.7 175.3 446.2 175.1 446.6C175 446.8 174.9 446.9 174.8 447.1C174.6 447.5 174.3 447.9 174.1 448.3C174.1 448.4 174 448.4 174 448.5C174 448.6 173.9 448.7 173.9 448.8C173.6 449.3 173.3 449.8 173.1 450.3C172.7 450.9 172.4 451.6 172.1 452.2C171.9 452.6 171.7 453.1 171.5 453.5C170.8 455 170.1 456.5 169.5 458C169.3 458.4 169.1 458.8 169 459.3C168.8 459.9 168.5 460.5 168.3 461.1C168.1 461.5 168 461.9 167.9 462.3C167.4 463.8 166.9 465.3 166.5 466.7C165.1 471.4 164.3 475.5 164 478.4L162.4 479C162.8 474.2 163.7 469.6 164.9 465.2C165.3 463.7 165.8 462.3 166.3 460.8C167.5 457.3 169 454 170.6 450.8C171.2 449.6 171.9 448.4 172.6 447.2C174.4 444.2 176.4 441.3 178.5 438.6C179.3 437.6 180.2 436.6 181 435.6C183 433.4 185.1 431.3 187.3 429.3C188.3 428.4 189.2 427.6 190.2 426.8C193 424.6 195.9 422.5 199 420.7C200.2 420 201.3 419.3 202.6 418.7C206 416.9 209.6 415.4 213.4 414.1C214.8 413.6 216.3 413.2 217.8 412.8C221.9 411.7 226.1 410.9 230.4 410.6C231.7 410.5 233 410.4 234.4 410.4V391.2L237.6 410.3L237.2 411.7Z" fill="white"/>
<path d="M93.8 333.6H93.1V332.9V331.2V327.2V312.7V307.2V292.5V287.2V274.3V269.2V254.2L92.6 253.7H14.2V249.7H93.1V206.2H95.1H95.2V249.7V251.2V251.7V253.7V256.3V271.2V276.3V289.2V294.5V309.2V314.7V329.2V331.2V333.6H93.8Z" fill="white"/>
<path d="M82.7 384.7C82.7 385.8 81.6 386.7 80.3 386.7H66.2V382.7H80.3C81.6 382.7 82.7 383.5 82.7 384.7Z" fill="white"/>
<path d="M174 384.7C174 385.8 172.9 386.7 171.7 386.7H94.4C93.1 386.7 92 385.8 92 384.7C92 383.6 93.1 382.7 94.4 382.7H171.6C173 382.7 174 383.5 174 384.7Z" fill="white"/>
<path d="M150.6 361.3C150.6 362.4 149.5 363.3 148.3 363.3H66.2V359.3H148.3C149.5 359.3 150.6 360.2 150.6 361.3Z" fill="white"/>
<path d="M188.5 361.3C188.5 362.4 187.4 363.3 186.1 363.3H164.3C163.9 363.3 163.6 363.2 163.3 363.1L163.1 363.2L162.7 362.8L162.4 362.5C162.1 362.2 162 361.8 162 361.4C162 360.3 163.1 359.4 164.4 359.4H186.2C187.4 359.3 188.5 360.2 188.5 361.3Z" fill="white"/>
<path d="M303.2 331.2V333.6H237.7V389.2H233.7V333.6H93.1V331.2H303.2Z" fill="white"/>
<path d="M93.1 0V333.6H329.9V0H93.1ZM325.9 329.6H97.1V4H325.9V329.6Z" fill="#0080FF"/>
<path d="M327.9 331.6H235.7V251.7H95.1V2H327.9V331.6Z" fill="#0080FF"/>
<path d="M0 249.7V487.3H237.7V249.7H0ZM233.7 483.3H4V253.7H233.7V483.3Z" fill="#FFB32C"/>
<path d="M231.5 412.3C231.1 412.4 230.6 412.4 230.2 412.5C229.7 412.6 229.3 412.6 228.8 412.7C228.4 412.8 228 412.8 227.6 412.9H227.5C227 413 226.5 413.1 226 413.2C225.6 413.3 225.3 413.4 224.9 413.4C224.6 413.5 224.2 413.5 223.9 413.6C223.4 413.7 222.8 413.8 222.3 414C221.3 414.2 220.3 414.5 219.3 414.8C218.2 415.1 217.2 415.4 216.1 415.8C215.7 415.9 215.4 416 215 416.2C214.6 416.3 214.1 416.5 213.7 416.7C213.3 416.9 212.8 417 212.4 417.2C212 417.4 211.5 417.5 211.1 417.7C210.2 418 209.3 418.4 208.4 418.8C207.9 419 207.4 419.2 206.9 419.5C206 419.9 205.2 420.3 204.3 420.7C204 420.8 203.7 421 203.4 421.2C203.1 421.3 202.8 421.5 202.5 421.7C201.9 422 201.3 422.3 200.7 422.7C199.2 423.5 197.6 424.4 196.1 425.4C195.7 425.6 195.3 425.9 195 426.1C194.4 426.5 193.9 426.9 193.3 427.2C192.7 427.6 192.2 428 191.6 428.4C190.6 429.2 189.6 429.9 188.5 430.8L189.8 432.1C190.8 431.3 191.8 430.4 192.8 429.6C195.6 427.4 198.6 425.4 201.7 423.6C202.9 422.9 204.1 422.3 205.3 421.7C208.8 420 212.5 418.5 216.3 417.4C217.8 416.9 219.3 416.5 220.8 416.2C225 415.2 229.4 414.6 233.8 414.4L231.5 412.3ZM181.8 436.8C181.4 437.3 180.9 437.8 180.5 438.3C180.1 438.8 179.7 439.3 179.3 439.8C179 440.2 178.7 440.5 178.5 440.9C178.3 441.2 178.1 441.4 177.9 441.7C177.3 442.5 176.7 443.3 176.2 444.2C176 444.5 175.8 444.8 175.6 445.1C175.6 445.2 175.5 445.3 175.5 445.3C175.2 445.7 174.9 446.2 174.7 446.6C174.6 446.8 174.5 446.9 174.4 447.1C174.2 447.5 173.9 447.9 173.7 448.3C173.7 448.4 173.6 448.4 173.6 448.5C173.6 448.6 173.5 448.7 173.5 448.8C173.2 449.3 172.9 449.8 172.7 450.3C172.3 450.9 172 451.6 171.7 452.2C171.5 452.6 171.3 453.1 171.1 453.5C170.4 455 169.7 456.5 169.1 458C168.9 458.4 168.7 458.8 168.6 459.3C168.4 459.9 168.1 460.5 167.9 461.1C167.8 461.5 167.6 461.9 167.5 462.3L169.1 463.9C170.2 460.4 171.6 457 173.3 453.7C173.9 452.5 174.6 451.2 175.3 450C177.1 447 179 444.1 181.2 441.4C182 440.4 182.9 439.4 183.7 438.4L181.8 436.8ZM231.5 412.3C231.1 412.4 230.6 412.4 230.2 412.5C229.7 412.6 229.3 412.6 228.8 412.7C228.4 412.8 228 412.8 227.6 412.9H227.5C227 413 226.5 413.1 226 413.2C225.6 413.3 225.3 413.4 224.9 413.4C224.6 413.5 224.2 413.5 223.9 413.6C223.4 413.7 222.8 413.8 222.3 414C221.3 414.2 220.3 414.5 219.3 414.8C218.2 415.1 217.2 415.4 216.1 415.8C215.7 415.9 215.4 416 215 416.2C214.6 416.3 214.1 416.5 213.7 416.7C213.3 416.9 212.8 417 212.4 417.2C212 417.4 211.5 417.5 211.1 417.7C210.2 418 209.3 418.4 208.4 418.8C207.9 419 207.4 419.2 206.9 419.5C206 419.9 205.2 420.3 204.3 420.7C204 420.8 203.7 421 203.4 421.2C203.1 421.3 202.8 421.5 202.5 421.7C201.9 422 201.3 422.3 200.7 422.7C199.2 423.5 197.6 424.4 196.1 425.4C195.7 425.6 195.3 425.9 195 426.1C194.4 426.5 193.9 426.9 193.3 427.2C192.7 427.6 192.2 428 191.6 428.4C190.6 429.2 189.6 429.9 188.5 430.8L189.8 432.1C190.8 431.3 191.8 430.4 192.8 429.6C195.6 427.4 198.6 425.4 201.7 423.6C202.9 422.9 204.1 422.3 205.3 421.7C208.8 420 212.5 418.5 216.3 417.4C217.8 416.9 219.3 416.5 220.8 416.2C225 415.2 229.4 414.6 233.8 414.4L231.5 412.3ZM181.8 436.8C181.4 437.3 180.9 437.8 180.5 438.3C180.1 438.8 179.7 439.3 179.3 439.8C179 440.2 178.7 440.5 178.5 440.9C178.3 441.2 178.1 441.4 177.9 441.7C177.3 442.5 176.7 443.3 176.2 444.2C176 444.5 175.8 444.8 175.6 445.1C175.6 445.2 175.5 445.3 175.5 445.3C175.2 445.7 174.9 446.2 174.7 446.6C174.6 446.8 174.5 446.9 174.4 447.1C174.2 447.5 173.9 447.9 173.7 448.3C173.7 448.4 173.6 448.4 173.6 448.5C173.6 448.6 173.5 448.7 173.5 448.8C173.2 449.3 172.9 449.8 172.7 450.3C172.3 450.9 172 451.6 171.7 452.2C171.5 452.6 171.3 453.1 171.1 453.5C170.4 455 169.7 456.5 169.1 458C168.9 458.4 168.7 458.8 168.6 459.3C168.4 459.9 168.1 460.5 167.9 461.1C167.8 461.5 167.6 461.9 167.5 462.3L169.1 463.9C170.2 460.4 171.6 457 173.3 453.7C173.9 452.5 174.6 451.2 175.3 450C177.1 447 179 444.1 181.2 441.4C182 440.4 182.9 439.4 183.7 438.4L181.8 436.8ZM231.5 412.3C231.1 412.4 230.6 412.4 230.2 412.5C229.7 412.6 229.3 412.6 228.8 412.7C228.4 412.8 228 412.8 227.6 412.9H227.5C227 413 226.5 413.1 226 413.2C225.6 413.3 225.3 413.4 224.9 413.4C224.6 413.5 224.2 413.5 223.9 413.6C223.4 413.7 222.8 413.8 222.3 414C221.3 414.2 220.3 414.5 219.3 414.8C218.2 415.1 217.2 415.4 216.1 415.8C215.7 415.9 215.4 416 215 416.2C214.6 416.3 214.1 416.5 213.7 416.7C213.3 416.9 212.8 417 212.4 417.2C212 417.4 211.5 417.5 211.1 417.7C210.2 418 209.3 418.4 208.4 418.8C207.9 419 207.4 419.2 206.9 419.5C206 419.9 205.2 420.3 204.3 420.7C204 420.8 203.7 421 203.4 421.2C203.1 421.3 202.8 421.5 202.5 421.7C201.9 422 201.3 422.3 200.7 422.7C199.2 423.5 197.6 424.4 196.1 425.4C195.7 425.6 195.3 425.9 195 426.1C194.4 426.5 193.9 426.9 193.3 427.2C192.7 427.6 192.2 428 191.6 428.4C190.6 429.2 189.6 429.9 188.5 430.8L189.8 432.1C190.8 431.3 191.8 430.4 192.8 429.6C195.6 427.4 198.6 425.4 201.7 423.6C202.9 422.9 204.1 422.3 205.3 421.7C208.8 420 212.5 418.5 216.3 417.4C217.8 416.9 219.3 416.5 220.8 416.2C225 415.2 229.4 414.6 233.8 414.4L231.5 412.3ZM181.8 436.8C181.4 437.3 180.9 437.8 180.5 438.3C180.1 438.8 179.7 439.3 179.3 439.8C179 440.2 178.7 440.5 178.5 440.9C178.3 441.2 178.1 441.4 177.9 441.7C177.3 442.5 176.7 443.3 176.2 444.2C176 444.5 175.8 444.8 175.6 445.1C175.6 445.2 175.5 445.3 175.5 445.3C175.2 445.7 174.9 446.2 174.7 446.6C174.6 446.8 174.5 446.9 174.4 447.1C174.2 447.5 173.9 447.9 173.7 448.3C173.7 448.4 173.6 448.4 173.6 448.5C173.6 448.6 173.5 448.7 173.5 448.8C173.2 449.3 172.9 449.8 172.7 450.3C172.3 450.9 172 451.6 171.7 452.2C171.5 452.6 171.3 453.1 171.1 453.5C170.4 455 169.7 456.5 169.1 458C168.9 458.4 168.7 458.8 168.6 459.3C168.4 459.9 168.1 460.5 167.9 461.1C167.8 461.5 167.6 461.9 167.5 462.3L169.1 463.9C170.2 460.4 171.6 457 173.3 453.7C173.9 452.5 174.6 451.2 175.3 450C177.1 447 179 444.1 181.2 441.4C182 440.4 182.9 439.4 183.7 438.4L181.8 436.8ZM231.5 412.3C231.1 412.4 230.6 412.4 230.2 412.5C229.7 412.6 229.3 412.6 228.8 412.7C228.4 412.8 228 412.8 227.6 412.9H227.5C227 413 226.5 413.1 226 413.2C225.6 413.3 225.3 413.4 224.9 413.4C224.6 413.5 224.2 413.5 223.9 413.6C223.4 413.7 222.8 413.8 222.3 414C221.3 414.2 220.3 414.5 219.3 414.8C218.2 415.1 217.2 415.4 216.1 415.8C215.7 415.9 215.4 416 215 416.2C214.6 416.3 214.1 416.5 213.7 416.7C213.3 416.9 212.8 417 212.4 417.2C212 417.4 211.5 417.5 211.1 417.7C210.2 418 209.3 418.4 208.4 418.8C207.9 419 207.4 419.2 206.9 419.5C206 419.9 205.2 420.3 204.3 420.7C204 420.8 203.7 421 203.4 421.2C203.1 421.3 202.8 421.5 202.5 421.7C201.9 422 201.3 422.3 200.7 422.7C199.2 423.5 197.6 424.4 196.1 425.4C195.7 425.6 195.3 425.9 195 426.1C194.4 426.5 193.9 426.9 193.3 427.2C192.7 427.6 192.2 428 191.6 428.4C190.6 429.2 189.6 429.9 188.5 430.8L189.8 432.1C190.8 431.3 191.8 430.4 192.8 429.6C195.6 427.4 198.6 425.4 201.7 423.6C202.9 422.9 204.1 422.3 205.3 421.7C208.8 420 212.5 418.5 216.3 417.4C217.8 416.9 219.3 416.5 220.8 416.2C225 415.2 229.4 414.6 233.8 414.4L231.5 412.3ZM181.8 436.8C181.4 437.3 180.9 437.8 180.5 438.3C180.1 438.8 179.7 439.3 179.3 439.8C179 440.2 178.7 440.5 178.5 440.9C178.3 441.2 178.1 441.4 177.9 441.7C177.3 442.5 176.7 443.3 176.2 444.2C176 444.5 175.8 444.8 175.6 445.1C175.6 445.2 175.5 445.3 175.5 445.3C175.2 445.7 174.9 446.2 174.7 446.6C174.6 446.8 174.5 446.9 174.4 447.1C174.2 447.5 173.9 447.9 173.7 448.3C173.7 448.4 173.6 448.4 173.6 448.5C173.6 448.6 173.5 448.7 173.5 448.8C173.2 449.3 172.9 449.8 172.7 450.3C172.3 450.9 172 451.6 171.7 452.2C171.5 452.6 171.3 453.1 171.1 453.5C170.4 455 169.7 456.5 169.1 458C168.9 458.4 168.7 458.8 168.6 459.3C168.4 459.9 168.1 460.5 167.9 461.1C167.8 461.5 167.6 461.9 167.5 462.3L169.1 463.9C170.2 460.4 171.6 457 173.3 453.7C173.9 452.5 174.6 451.2 175.3 450C177.1 447 179 444.1 181.2 441.4C182 440.4 182.9 439.4 183.7 438.4L181.8 436.8ZM231.5 412.3C231.1 412.4 230.6 412.4 230.2 412.5C229.7 412.6 229.3 412.6 228.8 412.7C228.4 412.8 228 412.8 227.6 412.9H227.5C227 413 226.5 413.1 226 413.2C225.6 413.3 225.3 413.4 224.9 413.4C224.6 413.5 224.2 413.5 223.9 413.6C223.4 413.7 222.8 413.8 222.3 414C221.3 414.2 220.3 414.5 219.3 414.8C218.2 415.1 217.2 415.4 216.1 415.8C215.7 415.9 215.4 416 215 416.2C214.6 416.3 214.1 416.5 213.7 416.7C213.3 416.9 212.8 417 212.4 417.2C212 417.4 211.5 417.5 211.1 417.7C210.2 418 209.3 418.4 208.4 418.8C207.9 419 207.4 419.2 206.9 419.5C206 419.9 205.2 420.3 204.3 420.7C204 420.8 203.7 421 203.4 421.2C203.1 421.3 202.8 421.5 202.5 421.7C201.9 422 201.3 422.3 200.7 422.7C199.2 423.5 197.6 424.4 196.1 425.4C195.7 425.6 195.3 425.9 195 426.1C194.4 426.5 193.9 426.9 193.3 427.2C192.7 427.6 192.2 428 191.6 428.4C190.6 429.2 189.6 429.9 188.5 430.8L189.8 432.1C190.8 431.3 191.8 430.4 192.8 429.6C195.6 427.4 198.6 425.4 201.7 423.6C202.9 422.9 204.1 422.3 205.3 421.7C208.8 420 212.5 418.5 216.3 417.4C217.8 416.9 219.3 416.5 220.8 416.2C225 415.2 229.4 414.6 233.8 414.4L231.5 412.3ZM181.8 436.8C181.4 437.3 180.9 437.8 180.5 438.3C180.1 438.8 179.7 439.3 179.3 439.8C179 440.2 178.7 440.5 178.5 440.9C178.3 441.2 178.1 441.4 177.9 441.7C177.3 442.5 176.7 443.3 176.2 444.2C176 444.5 175.8 444.8 175.6 445.1C175.6 445.2 175.5 445.3 175.5 445.3C175.2 445.7 174.9 446.2 174.7 446.6C174.6 446.8 174.5 446.9 174.4 447.1C174.2 447.5 173.9 447.9 173.7 448.3C173.7 448.4 173.6 448.4 173.6 448.5C173.6 448.6 173.5 448.7 173.5 448.8C173.2 449.3 172.9 449.8 172.7 450.3C172.3 450.9 172 451.6 171.7 452.2C171.5 452.6 171.3 453.1 171.1 453.5C170.4 455 169.7 456.5 169.1 458C168.9 458.4 168.7 458.8 168.6 459.3C168.4 459.9 168.1 460.5 167.9 461.1C167.8 461.5 167.6 461.9 167.5 462.3L169.1 463.9C170.2 460.4 171.6 457 173.3 453.7C173.9 452.5 174.6 451.2 175.3 450C177.1 447 179 444.1 181.2 441.4C182 440.4 182.9 439.4 183.7 438.4L181.8 436.8ZM231.5 412.3C231.1 412.4 230.6 412.4 230.2 412.5C229.7 412.6 229.3 412.6 228.8 412.7C228.4 412.8 228 412.8 227.6 412.9H227.5C227 413 226.5 413.1 226 413.2C225.6 413.3 225.3 413.4 224.9 413.4C224.6 413.5 224.2 413.5 223.9 413.6C223.4 413.7 222.8 413.8 222.3 414C221.3 414.2 220.3 414.5 219.3 414.8C218.2 415.1 217.2 415.4 216.1 415.8C215.7 415.9 215.4 416 215 416.2C214.6 416.3 214.1 416.5 213.7 416.7C213.3 416.9 212.8 417 212.4 417.2C212 417.4 211.5 417.5 211.1 417.7C210.2 418 209.3 418.4 208.4 418.8C207.9 419 207.4 419.2 206.9 419.5C206 419.9 205.2 420.3 204.3 420.7C204 420.8 203.7 421 203.4 421.2C203.1 421.3 202.8 421.5 202.5 421.7C201.9 422 201.3 422.3 200.7 422.7C199.2 423.5 197.6 424.4 196.1 425.4C195.7 425.6 195.3 425.9 195 426.1C194.4 426.5 193.9 426.9 193.3 427.2C192.7 427.6 192.2 428 191.6 428.4C190.6 429.2 189.6 429.9 188.5 430.8L189.8 432.1C190.8 431.3 191.8 430.4 192.8 429.6C195.6 427.4 198.6 425.4 201.7 423.6C202.9 422.9 204.1 422.3 205.3 421.7C208.8 420 212.5 418.5 216.3 417.4C217.8 416.9 219.3 416.5 220.8 416.2C225 415.2 229.4 414.6 233.8 414.4L231.5 412.3ZM181.8 436.8C181.4 437.3 180.9 437.8 180.5 438.3C180.1 438.8 179.7 439.3 179.3 439.8C179 440.2 178.7 440.5 178.5 440.9C178.3 441.2 178.1 441.4 177.9 441.7C177.3 442.5 176.7 443.3 176.2 444.2C176 444.5 175.8 444.8 175.6 445.1C175.6 445.2 175.5 445.3 175.5 445.3C175.2 445.7 174.9 446.2 174.7 446.6C174.6 446.8 174.5 446.9 174.4 447.1C174.2 447.5 173.9 447.9 173.7 448.3C173.7 448.4 173.6 448.4 173.6 448.5C173.6 448.6 173.5 448.7 173.5 448.8C173.2 449.3 172.9 449.8 172.7 450.3C172.3 450.9 172 451.6 171.7 452.2C171.5 452.6 171.3 453.1 171.1 453.5C170.4 455 169.7 456.5 169.1 458C168.9 458.4 168.7 458.8 168.6 459.3C168.4 459.9 168.1 460.5 167.9 461.1C167.8 461.5 167.6 461.9 167.5 462.3L169.1 463.9C170.2 460.4 171.6 457 173.3 453.7C173.9 452.5 174.6 451.2 175.3 450C177.1 447 179 444.1 181.2 441.4C182 440.4 182.9 439.4 183.7 438.4L181.8 436.8ZM200.4 422.6C198.9 423.4 197.3 424.3 195.8 425.3C195.4 425.5 195 425.8 194.7 426C194.1 426.4 193.6 426.8 193 427.1C192.4 427.5 191.9 427.9 191.3 428.3C190.3 429.1 189.3 429.8 188.2 430.7L189.5 432C190.5 431.2 191.5 430.3 192.5 429.5C195.3 427.3 198.3 425.3 201.4 423.5L200.4 422.6ZM181.8 436.8C181.4 437.3 180.9 437.8 180.5 438.3C180.1 438.8 179.7 439.3 179.3 439.8C179 440.2 178.7 440.5 178.5 440.9C178.3 441.2 178.1 441.4 177.9 441.7C177.3 442.5 176.7 443.3 176.2 444.2C176 444.5 175.8 444.8 175.6 445.1C175.6 445.2 175.5 445.3 175.5 445.3C175.2 445.7 174.9 446.2 174.7 446.6C174.6 446.8 174.5 446.9 174.4 447.1C174.2 447.5 173.9 447.9 173.7 448.3C173.7 448.4 173.6 448.4 173.6 448.5C173.6 448.6 173.5 448.7 173.5 448.8C173.2 449.3 172.9 449.8 172.7 450.3C172.3 450.9 172 451.6 171.7 452.2C171.5 452.6 171.3 453.1 171.1 453.5C170.4 455 169.7 456.5 169.1 458C168.9 458.4 168.7 458.8 168.6 459.3C168.4 459.9 168.1 460.5 167.9 461.1C167.8 461.5 167.6 461.9 167.5 462.3L169.1 463.9C170.2 460.4 171.6 457 173.3 453.7C173.9 452.5 174.6 451.2 175.3 450C177.1 447 179 444.1 181.2 441.4C182 440.4 182.9 439.4 183.7 438.4L181.8 436.8ZM200.4 422.6C198.9 423.4 197.3 424.3 195.8 425.3C195.4 425.5 195 425.8 194.7 426C194.1 426.4 193.6 426.8 193 427.1C192.4 427.5 191.9 427.9 191.3 428.3C190.3 429.1 189.3 429.8 188.2 430.7L189.5 432C190.5 431.2 191.5 430.3 192.5 429.5C195.3 427.3 198.3 425.3 201.4 423.5L200.4 422.6ZM181.8 436.8C181.4 437.3 180.9 437.8 180.5 438.3C180.1 438.8 179.7 439.3 179.3 439.8C179 440.2 178.7 440.5 178.5 440.9C178.3 441.2 178.1 441.4 177.9 441.7C177.3 442.5 176.7 443.3 176.2 444.2C176 444.5 175.8 444.8 175.6 445.1C175.6 445.2 175.5 445.3 175.5 445.3C175.2 445.7 174.9 446.2 174.7 446.6C174.6 446.8 174.5 446.9 174.4 447.1C174.2 447.5 173.9 447.9 173.7 448.3C173.7 448.4 173.6 448.4 173.6 448.5C173.6 448.6 173.5 448.7 173.5 448.8C173.2 449.3 172.9 449.8 172.7 450.3C172.3 450.9 172 451.6 171.7 452.2C171.5 452.6 171.3 453.1 171.1 453.5C170.4 455 169.7 456.5 169.1 458C168.9 458.4 168.7 458.8 168.6 459.3C168.4 459.9 168.1 460.5 167.9 461.1C167.8 461.5 167.6 461.9 167.5 462.3L169.1 463.9C170.2 460.4 171.6 457 173.3 453.7C173.9 452.5 174.6 451.2 175.3 450C177.1 447 179 444.1 181.2 441.4C182 440.4 182.9 439.4 183.7 438.4L181.8 436.8ZM200.4 422.6C198.9 423.4 197.3 424.3 195.8 425.3C195.4 425.5 195 425.8 194.7 426C194.1 426.4 193.6 426.8 193 427.1C192.4 427.5 191.9 427.9 191.3 428.3C190.3 429.1 189.3 429.8 188.2 430.7L189.5 432C190.5 431.2 191.5 430.3 192.5 429.5C195.3 427.3 198.3 425.3 201.4 423.5L200.4 422.6ZM181.8 436.8C181.4 437.3 180.9 437.8 180.5 438.3C180.1 438.8 179.7 439.3 179.3 439.8C179 440.2 178.7 440.5 178.5 440.9C178.3 441.2 178.1 441.4 177.9 441.7C177.3 442.5 176.7 443.3 176.2 444.2C176 444.5 175.8 444.8 175.6 445.1C175.6 445.2 175.5 445.3 175.5 445.3C175.2 445.7 174.9 446.2 174.7 446.6C174.6 446.8 174.5 446.9 174.4 447.1C174.2 447.5 173.9 447.9 173.7 448.3C173.7 448.4 173.6 448.4 173.6 448.5C173.6 448.6 173.5 448.7 173.5 448.8C173.2 449.3 172.9 449.8 172.7 450.3C172.3 450.9 172 451.6 171.7 452.2C171.5 452.6 171.3 453.1 171.1 453.5C170.4 455 169.7 456.5 169.1 458C168.9 458.4 168.7 458.8 168.6 459.3C168.4 459.9 168.1 460.5 167.9 461.1C167.8 461.5 167.6 461.9 167.5 462.3L169.1 463.9C170.2 460.4 171.6 457 173.3 453.7C173.9 452.5 174.6 451.2 175.3 450C177.1 447 179 444.1 181.2 441.4C182 440.4 182.9 439.4 183.7 438.4L181.8 436.8ZM200.4 422.6C198.9 423.4 197.3 424.3 195.8 425.3C195.4 425.5 195 425.8 194.7 426C194.1 426.4 193.6 426.8 193 427.1C192.4 427.5 191.9 427.9 191.3 428.3C190.3 429.1 189.3 429.8 188.2 430.7L189.5 432C190.5 431.2 191.5 430.3 192.5 429.5C195.3 427.3 198.3 425.3 201.4 423.5L200.4 422.6ZM181.8 436.8C181.4 437.3 180.9 437.8 180.5 438.3C180.1 438.8 179.7 439.3 179.3 439.8C179 440.2 178.7 440.5 178.5 440.9C178.3 441.2 178.1 441.4 177.9 441.7C177.3 442.5 176.7 443.3 176.2 444.2C176 444.5 175.8 444.8 175.6 445.1C175.6 445.2 175.5 445.3 175.5 445.3C175.2 445.7 174.9 446.2 174.7 446.6C174.6 446.8 174.5 446.9 174.4 447.1C174.2 447.5 173.9 447.9 173.7 448.3C173.7 448.4 173.6 448.4 173.6 448.5C173.6 448.6 173.5 448.7 173.5 448.8C173.2 449.3 172.9 449.8 172.7 450.3C172.3 450.9 172 451.6 171.7 452.2C171.5 452.6 171.3 453.1 171.1 453.5C170.4 455 169.7 456.5 169.1 458C168.9 458.4 168.7 458.8 168.6 459.3C168.4 459.9 168.1 460.5 167.9 461.1C167.8 461.5 167.6 461.9 167.5 462.3L169.1 463.9C170.2 460.4 171.6 457 173.3 453.7C173.9 452.5 174.6 451.2 175.3 450C177.1 447 179 444.1 181.2 441.4C182 440.4 182.9 439.4 183.7 438.4L181.8 436.8ZM237.7 410.2C237.4 410.2 237.2 410.2 236.9 410.2H236.5C235.7 410.2 234.9 410.2 234.1 410.2C233.9 410.2 233.8 410.2 233.7 410.2C232.4 410.2 231 410.3 229.7 410.4C225.4 410.8 221.1 411.5 217.1 412.6C215.6 413 214.2 413.4 212.7 413.9C209 415.1 205.4 416.7 201.9 418.5C200.7 419.1 199.5 419.8 198.3 420.5C195.2 422.3 192.3 424.3 189.5 426.6C188.5 427.4 187.5 428.2 186.6 429.1C184.4 431.1 182.3 433.2 180.3 435.4C179.4 436.4 178.6 437.4 177.8 438.4C175.6 441.1 173.6 444 171.9 447C171.2 448.2 170.5 449.4 169.9 450.6C168.2 453.8 166.8 457.2 165.6 460.6C165.1 462 164.6 463.5 164.2 465C162.9 469.5 162.1 474.1 161.7 478.8C161.6 480.3 161.5 481.8 161.4 483.3C161.4 484 161.4 484.7 161.4 485.4C161.4 486 161.4 486.6 161.4 487.3C162.4 527.9 195.8 560.6 236.6 560.6C278.1 560.6 311.8 526.9 311.8 485.4C311.8 444.3 278.7 410.8 237.7 410.2ZM236.5 556.6C197.8 556.6 166.3 525.7 165.3 487.3C165.3 486.7 165.3 486.1 165.3 485.4C165.3 484.7 165.3 484 165.3 483.3C165.5 478.1 166.2 473.1 167.4 468.3C167.8 466.8 168.2 465.3 168.7 463.8C169.8 460.3 171.2 456.9 172.9 453.6C173.5 452.4 174.2 451.1 174.9 449.9C176.7 446.9 178.6 444 180.8 441.3C181.6 440.3 182.5 439.3 183.3 438.3C185.3 436.1 187.4 434 189.6 432C190.6 431.2 191.6 430.3 192.6 429.5C195.4 427.3 198.4 425.3 201.5 423.5C202.7 422.8 203.9 422.2 205.1 421.6C208.6 419.9 212.3 418.4 216.1 417.3C217.6 416.8 219.1 416.4 220.6 416.1C224.8 415.1 229.2 414.5 233.6 414.3C233.7 414.3 233.8 414.3 233.8 414.3C234 414.3 234.1 414.3 234.2 414.3C235 414.3 235.8 414.3 236.6 414.3C237 414.3 237.4 414.3 237.8 414.3C276.5 414.9 307.8 446.6 307.8 485.5C307.8 524.7 275.8 556.6 236.5 556.6ZM181.8 436.8C181.4 437.3 180.9 437.8 180.5 438.3C180.1 438.8 179.7 439.3 179.3 439.8C179 440.2 178.7 440.5 178.5 440.9C178.3 441.2 178.1 441.4 177.9 441.7C177.3 442.5 176.7 443.3 176.2 444.2C176 444.5 175.8 444.8 175.6 445.1C175.6 445.2 175.5 445.3 175.5 445.3C175.2 445.7 174.9 446.2 174.7 446.6C174.6 446.8 174.5 446.9 174.4 447.1C174.2 447.5 173.9 447.9 173.7 448.3C173.7 448.4 173.6 448.4 173.6 448.5C173.6 448.6 173.5 448.7 173.5 448.8C173.2 449.3 172.9 449.8 172.7 450.3C172.3 450.9 172 451.6 171.7 452.2C171.5 452.6 171.3 453.1 171.1 453.5C170.4 455 169.7 456.5 169.1 458C168.9 458.4 168.7 458.8 168.6 459.3C168.4 459.9 168.1 460.5 167.9 461.1C167.8 461.5 167.6 461.9 167.5 462.3L169.1 463.9C170.2 460.4 171.6 457 173.3 453.7C173.9 452.5 174.6 451.2 175.3 450C177.1 447 179 444.1 181.2 441.4C182 440.4 182.9 439.4 183.7 438.4L181.8 436.8ZM200.4 422.6C198.9 423.4 197.3 424.3 195.8 425.3C195.4 425.5 195 425.8 194.7 426C194.1 426.4 193.6 426.8 193 427.1C192.4 427.5 191.9 427.9 191.3 428.3C190.3 429.1 189.3 429.8 188.2 430.7L189.5 432C190.5 431.2 191.5 430.3 192.5 429.5C195.3 427.3 198.3 425.3 201.4 423.5L200.4 422.6ZM181.8 436.8C181.4 437.3 180.9 437.8 180.5 438.3C180.1 438.8 179.7 439.3 179.3 439.8C179 440.2 178.7 440.5 178.5 440.9C178.3 441.2 178.1 441.4 177.9 441.7C177.3 442.5 176.7 443.3 176.2 444.2C176 444.5 175.8 444.8 175.6 445.1C175.6 445.2 175.5 445.3 175.5 445.3C175.2 445.7 174.9 446.2 174.7 446.6C174.6 446.8 174.5 446.9 174.4 447.1C174.2 447.5 173.9 447.9 173.7 448.3C173.7 448.4 173.6 448.4 173.6 448.5C173.6 448.6 173.5 448.7 173.5 448.8C173.2 449.3 172.9 449.8 172.7 450.3C172.3 450.9 172 451.6 171.7 452.2C171.5 452.6 171.3 453.1 171.1 453.5C170.4 455 169.7 456.5 169.1 458C168.9 458.4 168.7 458.8 168.6 459.3C168.4 459.9 168.1 460.5 167.9 461.1C167.8 461.5 167.6 461.9 167.5 462.3L169.1 463.9C170.2 460.4 171.6 457 173.3 453.7C173.9 452.5 174.6 451.2 175.3 450C177.1 447 179 444.1 181.2 441.4C182 440.4 182.9 439.4 183.7 438.4L181.8 436.8ZM200.4 422.6C198.9 423.4 197.3 424.3 195.8 425.3C195.4 425.5 195 425.8 194.7 426C194.1 426.4 193.6 426.8 193 427.1C192.4 427.5 191.9 427.9 191.3 428.3C190.3 429.1 189.3 429.8 188.2 430.7L189.5 432C190.5 431.2 191.5 430.3 192.5 429.5C195.3 427.3 198.3 425.3 201.4 423.5L200.4 422.6ZM181.8 436.8C181.4 437.3 180.9 437.8 180.5 438.3C180.1 438.8 179.7 439.3 179.3 439.8C179 440.2 178.7 440.5 178.5 440.9C178.3 441.2 178.1 441.4 177.9 441.7C177.3 442.5 176.7 443.3 176.2 444.2C176 444.5 175.8 444.8 175.6 445.1C175.6 445.2 175.5 445.3 175.5 445.3C175.2 445.7 174.9 446.2 174.7 446.6C174.6 446.8 174.5 446.9 174.4 447.1C174.2 447.5 173.9 447.9 173.7 448.3C173.7 448.4 173.6 448.4 173.6 448.5C173.6 448.6 173.5 448.7 173.5 448.8C173.2 449.3 172.9 449.8 172.7 450.3C172.3 450.9 172 451.6 171.7 452.2C171.5 452.6 171.3 453.1 171.1 453.5C170.4 455 169.7 456.5 169.1 458C168.9 458.4 168.7 458.8 168.6 459.3C168.4 459.9 168.1 460.5 167.9 461.1C167.8 461.5 167.6 461.9 167.5 462.3L169.1 463.9C170.2 460.4 171.6 457 173.3 453.7C173.9 452.5 174.6 451.2 175.3 450C177.1 447 179 444.1 181.2 441.4C182 440.4 182.9 439.4 183.7 438.4L181.8 436.8ZM200.4 422.6C198.9 423.4 197.3 424.3 195.8 425.3C195.4 425.5 195 425.8 194.7 426C194.1 426.4 193.6 426.8 193 427.1C192.4 427.5 191.9 427.9 191.3 428.3C190.3 429.1 189.3 429.8 188.2 430.7L189.5 432C190.5 431.2 191.5 430.3 192.5 429.5C195.3 427.3 198.3 425.3 201.4 423.5L200.4 422.6ZM181.8 436.8C181.4 437.3 180.9 437.8 180.5 438.3C180.1 438.8 179.7 439.3 179.3 439.8C179 440.2 178.7 440.5 178.5 440.9C178.3 441.2 178.1 441.4 177.9 441.7C177.3 442.5 176.7 443.3 176.2 444.2C176 444.5 175.8 444.8 175.6 445.1C175.6 445.2 175.5 445.3 175.5 445.3C175.2 445.7 174.9 446.2 174.7 446.6C174.6 446.8 174.5 446.9 174.4 447.1C174.2 447.5 173.9 447.9 173.7 448.3C173.7 448.4 173.6 448.4 173.6 448.5C173.6 448.6 173.5 448.7 173.5 448.8C173.2 449.3 172.9 449.8 172.7 450.3C172.3 450.9 172 451.6 171.7 452.2C171.5 452.6 171.3 453.1 171.1 453.5C170.4 455 169.7 456.5 169.1 458C168.9 458.4 168.7 458.8 168.6 459.3C168.4 459.9 168.1 460.5 167.9 461.1C167.8 461.5 167.6 461.9 167.5 462.3L169.1 463.9C170.2 460.4 171.6 457 173.3 453.7C173.9 452.5 174.6 451.2 175.3 450C177.1 447 179 444.1 181.2 441.4C182 440.4 182.9 439.4 183.7 438.4L181.8 436.8ZM200.4 422.6C198.9 423.4 197.3 424.3 195.8 425.3C195.4 425.5 195 425.8 194.7 426C194.1 426.4 193.6 426.8 193 427.1C192.4 427.5 191.9 427.9 191.3 428.3C190.3 429.1 189.3 429.8 188.2 430.7L189.5 432C190.5 431.2 191.5 430.3 192.5 429.5C195.3 427.3 198.3 425.3 201.4 423.5L200.4 422.6ZM181.8 436.8C181.4 437.3 180.9 437.8 180.5 438.3C180.1 438.8 179.7 439.3 179.3 439.8C179 440.2 178.7 440.5 178.5 440.9C178.3 441.2 178.1 441.4 177.9 441.7C177.3 442.5 176.7 443.3 176.2 444.2C176 444.5 175.8 444.8 175.6 445.1C175.6 445.2 175.5 445.3 175.5 445.3C175.2 445.7 174.9 446.2 174.7 446.6C174.6 446.8 174.5 446.9 174.4 447.1C174.2 447.5 173.9 447.9 173.7 448.3C173.7 448.4 173.6 448.4 173.6 448.5C173.6 448.6 173.5 448.7 173.5 448.8C173.2 449.3 172.9 449.8 172.7 450.3C172.3 450.9 172 451.6 171.7 452.2C171.5 452.6 171.3 453.1 171.1 453.5C170.4 455 169.7 456.5 169.1 458C168.9 458.4 168.7 458.8 168.6 459.3C168.4 459.9 168.1 460.5 167.9 461.1C167.8 461.5 167.6 461.9 167.5 462.3L169.1 463.9C170.2 460.4 171.6 457 173.3 453.7C173.9 452.5 174.6 451.2 175.3 450C177.1 447 179 444.1 181.2 441.4C182 440.4 182.9 439.4 183.7 438.4L181.8 436.8ZM231.5 412.3C231.1 412.4 230.6 412.4 230.2 412.5C229.7 412.6 229.3 412.6 228.8 412.7C228.4 412.8 228 412.8 227.6 412.9H227.5C227 413 226.5 413.1 226 413.2C225.6 413.3 225.3 413.4 224.9 413.4C224.6 413.5 224.2 413.5 223.9 413.6C223.4 413.7 222.8 413.8 222.3 414C221.3 414.2 220.3 414.5 219.3 414.8C218.2 415.1 217.2 415.4 216.1 415.8C215.7 415.9 215.4 416 215 416.2C214.6 416.3 214.1 416.5 213.7 416.7C213.3 416.9 212.8 417 212.4 417.2C212 417.4 211.5 417.5 211.1 417.7C210.2 418 209.3 418.4 208.4 418.8C207.9 419 207.4 419.2 206.9 419.5C206 419.9 205.2 420.3 204.3 420.7C204 420.8 203.7 421 203.4 421.2C203.1 421.3 202.8 421.5 202.5 421.7C201.9 422 201.3 422.3 200.7 422.7C199.2 423.5 197.6 424.4 196.1 425.4C195.7 425.6 195.3 425.9 195 426.1C194.4 426.5 193.9 426.9 193.3 427.2C192.7 427.6 192.2 428 191.6 428.4C190.6 429.2 189.6 429.9 188.5 430.8L189.8 432.1C190.8 431.3 191.8 430.4 192.8 429.6C195.6 427.4 198.6 425.4 201.7 423.6C202.9 422.9 204.1 422.3 205.3 421.7C208.8 420 212.5 418.5 216.3 417.4C217.8 416.9 219.3 416.5 220.8 416.2C225 415.2 229.4 414.6 233.8 414.4L231.5 412.3ZM181.8 436.8C181.4 437.3 180.9 437.8 180.5 438.3C180.1 438.8 179.7 439.3 179.3 439.8C179 440.2 178.7 440.5 178.5 440.9C178.3 441.2 178.1 441.4 177.9 441.7C177.3 442.5 176.7 443.3 176.2 444.2C176 444.5 175.8 444.8 175.6 445.1C175.6 445.2 175.5 445.3 175.5 445.3C175.2 445.7 174.9 446.2 174.7 446.6C174.6 446.8 174.5 446.9 174.4 447.1C174.2 447.5 173.9 447.9 173.7 448.3C173.7 448.4 173.6 448.4 173.6 448.5C173.6 448.6 173.5 448.7 173.5 448.8C173.2 449.3 172.9 449.8 172.7 450.3C172.3 450.9 172 451.6 171.7 452.2C171.5 452.6 171.3 453.1 171.1 453.5C170.4 455 169.7 456.5 169.1 458C168.9 458.4 168.7 458.8 168.6 459.3C168.4 459.9 168.1 460.5 167.9 461.1C167.8 461.5 167.6 461.9 167.5 462.3L169.1 463.9C170.2 460.4 171.6 457 173.3 453.7C173.9 452.5 174.6 451.2 175.3 450C177.1 447 179 444.1 181.2 441.4C182 440.4 182.9 439.4 183.7 438.4L181.8 436.8ZM231.5 412.3C231.1 412.4 230.6 412.4 230.2 412.5C229.7 412.6 229.3 412.6 228.8 412.7C228.4 412.8 228 412.8 227.6 412.9H227.5C227 413 226.5 413.1 226 413.2C225.6 413.3 225.3 413.4 224.9 413.4C224.6 413.5 224.2 413.5 223.9 413.6C223.4 413.7 222.8 413.8 222.3 414C221.3 414.2 220.3 414.5 219.3 414.8C218.2 415.1 217.2 415.4 216.1 415.8C215.7 415.9 215.4 416 215 416.2C214.6 416.3 214.1 416.5 213.7 416.7C213.3 416.9 212.8 417 212.4 417.2C212 417.4 211.5 417.5 211.1 417.7C210.2 418 209.3 418.4 208.4 418.8C207.9 419 207.4 419.2 206.9 419.5C206 419.9 205.2 420.3 204.3 420.7C204 420.8 203.7 421 203.4 421.2C203.1 421.3 202.8 421.5 202.5 421.7C201.9 422 201.3 422.3 200.7 422.7C199.2 423.5 197.6 424.4 196.1 425.4C195.7 425.6 195.3 425.9 195 426.1C194.4 426.5 193.9 426.9 193.3 427.2C192.7 427.6 192.2 428 191.6 428.4C190.6 429.2 189.6 429.9 188.5 430.8L189.8 432.1C190.8 431.3 191.8 430.4 192.8 429.6C195.6 427.4 198.6 425.4 201.7 423.6C202.9 422.9 204.1 422.3 205.3 421.7C208.8 420 212.5 418.5 216.3 417.4C217.8 416.9 219.3 416.5 220.8 416.2C225 415.2 229.4 414.6 233.8 414.4L231.5 412.3ZM181.8 436.8C181.4 437.3 180.9 437.8 180.5 438.3C180.1 438.8 179.7 439.3 179.3 439.8C179 440.2 178.7 440.5 178.5 440.9C178.3 441.2 178.1 441.4 177.9 441.7C177.3 442.5 176.7 443.3 176.2 444.2C176 444.5 175.8 444.8 175.6 445.1C175.6 445.2 175.5 445.3 175.5 445.3C175.2 445.7 174.9 446.2 174.7 446.6C174.6 446.8 174.5 446.9 174.4 447.1C174.2 447.5 173.9 447.9 173.7 448.3C173.7 448.4 173.6 448.4 173.6 448.5C173.6 448.6 173.5 448.7 173.5 448.8C173.2 449.3 172.9 449.8 172.7 450.3C172.3 450.9 172 451.6 171.7 452.2C171.5 452.6 171.3 453.1 171.1 453.5C170.4 455 169.7 456.5 169.1 458C168.9 458.4 168.7 458.8 168.6 459.3C168.4 459.9 168.1 460.5 167.9 461.1C167.8 461.5 167.6 461.9 167.5 462.3L169.1 463.9C170.2 460.4 171.6 457 173.3 453.7C173.9 452.5 174.6 451.2 175.3 450C177.1 447 179 444.1 181.2 441.4C182 440.4 182.9 439.4 183.7 438.4L181.8 436.8ZM231.5 412.3C231.1 412.4 230.6 412.4 230.2 412.5C229.7 412.6 229.3 412.6 228.8 412.7C228.4 412.8 228 412.8 227.6 412.9H227.5C227 413 226.5 413.1 226 413.2C225.6 413.3 225.3 413.4 224.9 413.4C224.6 413.5 224.2 413.5 223.9 413.6C223.4 413.7 222.8 413.8 222.3 414C221.3 414.2 220.3 414.5 219.3 414.8C218.2 415.1 217.2 415.4 216.1 415.8C215.7 415.9 215.4 416 215 416.2C214.6 416.3 214.1 416.5 213.7 416.7C213.3 416.9 212.8 417 212.4 417.2C212 417.4 211.5 417.5 211.1 417.7C210.2 418 209.3 418.4 208.4 418.8C207.9 419 207.4 419.2 206.9 419.5C206 419.9 205.2 420.3 204.3 420.7C204 420.8 203.7 421 203.4 421.2C203.1 421.3 202.8 421.5 202.5 421.7C201.9 422 201.3 422.3 200.7 422.7C199.2 423.5 197.6 424.4 196.1 425.4C195.7 425.6 195.3 425.9 195 426.1C194.4 426.5 193.9 426.9 193.3 427.2C192.7 427.6 192.2 428 191.6 428.4C190.6 429.2 189.6 429.9 188.5 430.8L189.8 432.1C190.8 431.3 191.8 430.4 192.8 429.6C195.6 427.4 198.6 425.4 201.7 423.6C202.9 422.9 204.1 422.3 205.3 421.7C208.8 420 212.5 418.5 216.3 417.4C217.8 416.9 219.3 416.5 220.8 416.2C225 415.2 229.4 414.6 233.8 414.4L231.5 412.3ZM181.8 436.8C181.4 437.3 180.9 437.8 180.5 438.3C180.1 438.8 179.7 439.3 179.3 439.8C179 440.2 178.7 440.5 178.5 440.9C178.3 441.2 178.1 441.4 177.9 441.7C177.3 442.5 176.7 443.3 176.2 444.2C176 444.5 175.8 444.8 175.6 445.1C175.6 445.2 175.5 445.3 175.5 445.3C175.2 445.7 174.9 446.2 174.7 446.6C174.6 446.8 174.5 446.9 174.4 447.1C174.2 447.5 173.9 447.9 173.7 448.3C173.7 448.4 173.6 448.4 173.6 448.5C173.6 448.6 173.5 448.7 173.5 448.8C173.2 449.3 172.9 449.8 172.7 450.3C172.3 450.9 172 451.6 171.7 452.2C171.5 452.6 171.3 453.1 171.1 453.5C170.4 455 169.7 456.5 169.1 458C168.9 458.4 168.7 458.8 168.6 459.3C168.4 459.9 168.1 460.5 167.9 461.1C167.8 461.5 167.6 461.9 167.5 462.3L169.1 463.9C170.2 460.4 171.6 457 173.3 453.7C173.9 452.5 174.6 451.2 175.3 450C177.1 447 179 444.1 181.2 441.4C182 440.4 182.9 439.4 183.7 438.4L181.8 436.8ZM231.5 412.3C231.1 412.4 230.6 412.4 230.2 412.5C229.7 412.6 229.3 412.6 228.8 412.7C228.4 412.8 228 412.8 227.6 412.9H227.5C227 413 226.5 413.1 226 413.2C225.6 413.3 225.3 413.4 224.9 413.4C224.6 413.5 224.2 413.5 223.9 413.6C223.4 413.7 222.8 413.8 222.3 414C221.3 414.2 220.3 414.5 219.3 414.8C218.2 415.1 217.2 415.4 216.1 415.8C215.7 415.9 215.4 416 215 416.2C214.6 416.3 214.1 416.5 213.7 416.7C213.3 416.9 212.8 417 212.4 417.2C212 417.4 211.5 417.5 211.1 417.7C210.2 418 209.3 418.4 208.4 418.8C207.9 419 207.4 419.2 206.9 419.5C206 419.9 205.2 420.3 204.3 420.7C204 420.8 203.7 421 203.4 421.2C203.1 421.3 202.8 421.5 202.5 421.7C201.9 422 201.3 422.3 200.7 422.7C199.2 423.5 197.6 424.4 196.1 425.4C195.7 425.6 195.3 425.9 195 426.1C194.4 426.5 193.9 426.9 193.3 427.2C192.7 427.6 192.2 428 191.6 428.4C190.6 429.2 189.6 429.9 188.5 430.8L189.8 432.1C190.8 431.3 191.8 430.4 192.8 429.6C195.6 427.4 198.6 425.4 201.7 423.6C202.9 422.9 204.1 422.3 205.3 421.7C208.8 420 212.5 418.5 216.3 417.4C217.8 416.9 219.3 416.5 220.8 416.2C225 415.2 229.4 414.6 233.8 414.4L231.5 412.3ZM181.8 436.8C181.4 437.3 180.9 437.8 180.5 438.3C180.1 438.8 179.7 439.3 179.3 439.8C179 440.2 178.7 440.5 178.5 440.9C178.3 441.2 178.1 441.4 177.9 441.7C177.3 442.5 176.7 443.3 176.2 444.2C176 444.5 175.8 444.8 175.6 445.1C175.6 445.2 175.5 445.3 175.5 445.3C175.2 445.7 174.9 446.2 174.7 446.6C174.6 446.8 174.5 446.9 174.4 447.1C174.2 447.5 173.9 447.9 173.7 448.3C173.7 448.4 173.6 448.4 173.6 448.5C173.6 448.6 173.5 448.7 173.5 448.8C173.2 449.3 172.9 449.8 172.7 450.3C172.3 450.9 172 451.6 171.7 452.2C171.5 452.6 171.3 453.1 171.1 453.5C170.4 455 169.7 456.5 169.1 458C168.9 458.4 168.7 458.8 168.6 459.3C168.4 459.9 168.1 460.5 167.9 461.1C167.8 461.5 167.6 461.9 167.5 462.3L169.1 463.9C170.2 460.4 171.6 457 173.3 453.7C173.9 452.5 174.6 451.2 175.3 450C177.1 447 179 444.1 181.2 441.4C182 440.4 182.9 439.4 183.7 438.4L181.8 436.8ZM231.5 412.3C231.1 412.4 230.6 412.4 230.2 412.5C229.7 412.6 229.3 412.6 228.8 412.7C228.4 412.8 228 412.8 227.6 412.9H227.5C227 413 226.5 413.1 226 413.2C225.6 413.3 225.3 413.4 224.9 413.4C224.6 413.5 224.2 413.5 223.9 413.6C223.4 413.7 222.8 413.8 222.3 414C221.3 414.2 220.3 414.5 219.3 414.8C218.2 415.1 217.2 415.4 216.1 415.8C215.7 415.9 215.4 416 215 416.2C214.6 416.3 214.1 416.5 213.7 416.7C213.3 416.9 212.8 417 212.4 417.2C212 417.4 211.5 417.5 211.1 417.7C210.2 418 209.3 418.4 208.4 418.8C207.9 419 207.4 419.2 206.9 419.5C206 419.9 205.2 420.3 204.3 420.7C204 420.8 203.7 421 203.4 421.2C203.1 421.3 202.8 421.5 202.5 421.7C201.9 422 201.3 422.3 200.7 422.7C199.2 423.5 197.6 424.4 196.1 425.4C195.7 425.6 195.3 425.9 195 426.1C194.4 426.5 193.9 426.9 193.3 427.2C192.7 427.6 192.2 428 191.6 428.4C190.6 429.2 189.6 429.9 188.5 430.8L189.8 432.1C190.8 431.3 191.8 430.4 192.8 429.6C195.6 427.4 198.6 425.4 201.7 423.6C202.9 422.9 204.1 422.3 205.3 421.7C208.8 420 212.5 418.5 216.3 417.4C217.8 416.9 219.3 416.5 220.8 416.2C225 415.2 229.4 414.6 233.8 414.4L231.5 412.3ZM181.8 436.8C181.4 437.3 180.9 437.8 180.5 438.3C180.1 438.8 179.7 439.3 179.3 439.8C179 440.2 178.7 440.5 178.5 440.9C178.3 441.2 178.1 441.4 177.9 441.7C177.3 442.5 176.7 443.3 176.2 444.2C176 444.5 175.8 444.8 175.6 445.1C175.6 445.2 175.5 445.3 175.5 445.3C175.2 445.7 174.9 446.2 174.7 446.6C174.6 446.8 174.5 446.9 174.4 447.1C174.2 447.5 173.9 447.9 173.7 448.3C173.7 448.4 173.6 448.4 173.6 448.5L175 449.9C176.8 446.9 178.7 444 180.9 441.3C181.7 440.3 182.6 439.3 183.4 438.3L181.8 436.8ZM231.5 412.3C231.1 412.4 230.6 412.4 230.2 412.5C229.7 412.6 229.3 412.6 228.8 412.7C228.4 412.8 228 412.8 227.6 412.9H227.5C227 413 226.5 413.1 226 413.2C225.6 413.3 225.3 413.4 224.9 413.4C224.6 413.5 224.2 413.5 223.9 413.6C223.4 413.7 222.8 413.8 222.3 414C221.3 414.2 220.3 414.5 219.3 414.8C218.2 415.1 217.2 415.4 216.1 415.8C215.7 415.9 215.4 416 215 416.2C214.6 416.3 214.1 416.5 213.7 416.7C213.3 416.9 212.8 417 212.4 417.2C212 417.4 211.5 417.5 211.1 417.7C210.2 418 209.3 418.4 208.4 418.8C207.9 419 207.4 419.2 206.9 419.5C206 419.9 205.2 420.3 204.3 420.7C204 420.8 203.7 421 203.4 421.2C203.1 421.3 202.8 421.5 202.5 421.7C201.9 422 201.3 422.3 200.7 422.7C199.2 423.5 197.6 424.4 196.1 425.4C195.7 425.6 195.3 425.9 195 426.1C194.4 426.5 193.9 426.9 193.3 427.2C192.7 427.6 192.2 428 191.6 428.4C190.6 429.2 189.6 429.9 188.5 430.8L189.8 432.1C190.8 431.3 191.8 430.4 192.8 429.6C195.6 427.4 198.6 425.4 201.7 423.6C202.9 422.9 204.1 422.3 205.3 421.7C208.8 420 212.5 418.5 216.3 417.4C217.8 416.9 219.3 416.5 220.8 416.2C225 415.2 229.4 414.6 233.8 414.4L231.5 412.3Z" fill="#0080FF"/>
<path d="M294.2 64H130C128.7 64 127.6 63.1 127.6 62C127.6 60.9 128.7 60 130 60H294.2C295.5 60 296.6 60.9 296.6 62C296.6 63.1 295.5 64 294.2 64Z" fill="white"/>
<path d="M262.8 110.6H130C128.7 110.6 127.6 109.7 127.6 108.6C127.6 107.5 128.7 106.6 130 106.6H262.9C264.2 106.6 265.3 107.5 265.3 108.6C265.1 109.7 264.2 110.6 262.8 110.6Z" fill="white"/>
<path fill-rule="evenodd" clip-rule="evenodd" d="M236.3 474.2C243 474.2 248.4 479.7 248.4 486.3C248.4 492.9 242.9 498.4 236.3 498.4C229.6 498.4 224.2 492.9 224.2 486.3C224.2 479.6 229.6 474.2 236.3 474.2Z" fill="#0080FF"/>
<path d="M251.5 251.4C251.5 243.6 245.1 237.3 237.4 237.3C229.6 237.3 223.3 243.6 223.3 251.4C223.3 259.2 229.7 265.5 237.4 265.5C245.1 265.5 251.5 259.2 251.5 251.4Z" fill="#FFC153"/>
<path d="M237.3 235.2C229 235.2 222.1 241.5 221.2 249.6C221.1 250.2 221.1 250.7 221.1 251.3C221.1 251.4 221.1 251.5 221.1 251.6C221.1 252.3 221.2 252.9 221.3 253.6C221.6 255.5 222.2 257.3 223 258.9C224.5 261.7 226.8 264.1 229.7 265.6C230.9 266.3 232.3 266.8 233.7 267.1C234.4 267.3 235 267.4 235.7 267.4C236.2 267.4 236.7 267.5 237.3 267.5C237.4 267.5 237.6 267.5 237.7 267.5C246.4 267.3 253.4 260.1 253.4 251.4C253.5 242.5 246.2 235.2 237.3 235.2ZM237.7 263.5C237.6 263.5 237.4 263.5 237.3 263.5C236.8 263.5 236.2 263.5 235.7 263.4C235 263.3 234.4 263.2 233.7 263C229.5 261.7 226.2 258.1 225.4 253.7C225.3 253 225.2 252.4 225.2 251.7C225.2 251.6 225.2 251.5 225.2 251.4C225.2 250.8 225.2 250.2 225.3 249.7C226.1 243.8 231.2 239.3 237.3 239.3C244 239.3 249.4 244.7 249.4 251.4C249.5 257.9 244.2 263.3 237.7 263.5Z" fill="white"/>
<path d="M232.3 159H129.9C128.6 159 127.5 158.1 127.5 157C127.5 155.9 128.6 155 129.9 155H232.3C233.6 155 234.7 155.9 234.7 157C234.7 158.1 233.6 159 232.3 159Z" fill="white"/>
<path d="M201.2 87.2998H130C128.7 87.2998 127.6 86.3998 127.6 85.2998C127.6 84.1998 128.7 83.2998 130 83.2998H201.2C202.5 83.2998 203.6 84.1998 203.6 85.2998C203.6 86.3998 202.5 87.2998 201.2 87.2998Z" fill="white"/>
<path d="M201.2 133.9H130C128.7 133.9 127.6 133 127.6 131.9C127.6 130.8 128.7 129.9 130 129.9H201.2C202.5 129.9 203.6 130.8 203.6 131.9C203.6 133 202.5 133.9 201.2 133.9Z" fill="white"/>
<path d="M239.6 87.2998H216C214.7 87.2998 213.6 86.3998 213.6 85.2998C213.6 84.1998 214.7 83.2998 216 83.2998H239.5C240.8 83.2998 241.9 84.1998 241.9 85.2998C241.9 86.3998 240.9 87.2998 239.6 87.2998Z" fill="white"/>
<path d="M150.6 361.3C150.6 362.4 149.5 363.3 148.3 363.3H36.5999C35.2999 363.3 34.2 362.4 34.2 361.3C34.2 360.2 35.2999 359.3 36.5999 359.3H148.2C149.5 359.3 150.6 360.2 150.6 361.3Z" fill="#FFB32C"/>
<path d="M188.5 361.3C188.5 362.4 187.4 363.3 186.1 363.3H164.3C163.9 363.3 163.6 363.2 163.3 363.1C163.1 363 162.9 362.9 162.7 362.7L162.4 362.4C162.1 362.1 162 361.7 162 361.3C162 360.2 163.1 359.3 164.4 359.3H186.2C187.4 359.3 188.5 360.2 188.5 361.3Z" fill="#FFB32C"/>
<path d="M114.1 407.8C114.1 408.2 114 408.5 113.8 408.8C113.4 409.4 112.6 409.8 111.8 409.8H36.5999C35.2999 409.8 34.2 408.9 34.2 407.8C34.2 406.7 35.2999 405.8 36.5999 405.8H111.7C113 405.8 114.1 406.7 114.1 407.8Z" fill="#FFB32C"/>
<path d="M138.6 407.8C138.6 408.9 137.5 409.8 136.3 409.8H125.8C124.5 409.8 123.4 408.9 123.4 407.8C123.4 406.7 124.4 405.9 125.6 405.8H125.7H136.2C137.5 405.8 138.6 406.7 138.6 407.8Z" fill="#FFB32C"/>
<path d="M82.6999 384.7C82.6999 385.8 81.6 386.7 80.3 386.7H36.5999C35.2999 386.7 34.2 385.8 34.2 384.7C34.2 383.6 35.2999 382.7 36.5999 382.7H80.3C81.6 382.7 82.6999 383.5 82.6999 384.7Z" fill="#FFB32C"/>
<path d="M110.3 431.1C110.3 432.2 109.2 433.1 107.9 433.1H36.7001C35.4001 433.1 34.3 432.2 34.3 431.1C34.3 430 35.4001 429.1 36.7001 429.1H108C109.3 429.1 110.3 430 110.3 431.1Z" fill="#FFB32C"/>
<path d="M174 384.7C174 385.8 172.9 386.7 171.7 386.7H94.4C93.1 386.7 92 385.8 92 384.7C92 383.6 93.1 382.7 94.4 382.7H171.6C173 382.7 174 383.5 174 384.7Z" fill="#FFB32C"/>
</g>
<defs>
<clipPath id="clip0_1_2899">
<rect width="329.9" height="560.6" fill="white"/>
</clipPath>
</defs>
</svg>
