<svg width="273" height="273" viewBox="0 0 273 273" fill="none" xmlns="http://www.w3.org/2000/svg">
<g clip-path="url(#clip0_1_2819)">
<path d="M153.6 272.6H0V119H153.6V272.6ZM4 268.6H149.6V123H4V268.6Z" fill="#FFB32C"/>
<path d="M59.1001 222V169.6L100.5 195.8L59.1001 222Z" fill="#FFB32C"/>
<path d="M80.6001 122.4L83.5001 119.5L151.7 187.9L148.8 190.8L80.6001 122.4Z" fill="#FFB32C"/>
<path d="M121 122.5L124.9 120.7L151.7 147.6L150.5 152.5L121 122.5Z" fill="#FFB32C"/>
<path d="M101.2 122.4L104.1 119.5L151.7 167.3L150 171.5L101.2 122.4Z" fill="#FFB32C"/>
<path d="M174.4 195.6C120.5 195.6 76.6001 151.7 76.6001 97.8C76.6001 43.9 120.5 0 174.4 0C228.3 0 272.2 43.9 272.2 97.8C272.2 151.7 228.3 195.6 174.4 195.6ZM174.4 4C122.7 4 80.6001 46.1 80.6001 97.8C80.6001 149.5 122.7 191.6 174.4 191.6C226.1 191.6 268.2 149.5 268.2 97.8C268.2 46.1 226.1 4 174.4 4Z" fill="#0080FF"/>
<path d="M173.4 110.9C181.2 110.9 187.5 104.6 187.5 96.7999C187.5 88.9999 181.2 82.5999 173.4 82.5999C165.6 82.5999 159.2 88.8999 159.2 96.7999C159.2 104.6 165.5 110.9 173.4 110.9Z" fill="#0080FF"/>
<path d="M173.3 112.9C164.4 112.9 157.2 105.7 157.2 96.8C157.2 87.9 164.4 80.7 173.3 80.7C182.2 80.7 189.5 87.9 189.5 96.8C189.5 105.7 182.3 112.9 173.3 112.9ZM173.3 84.6C166.6 84.6 161.2 90.1 161.2 96.7C161.2 103.3 166.7 108.8 173.3 108.8C180 108.8 185.5 103.3 185.5 96.7C185.5 90.1 180 84.6 173.3 84.6Z" fill="white"/>
</g>
<defs>
<clipPath id="clip0_1_2819">
<rect width="273" height="273" fill="white"/>
</clipPath>
</defs>
</svg>
