<svg width="325" height="474" viewBox="0 0 325 474" fill="none" xmlns="http://www.w3.org/2000/svg">
<path d="M323 2H74.8V52.7H323V2Z" fill="#0080FF"/>
<path d="M73.6 198.6H76.8V201.8L73.6 198.6Z" fill="#0080FF"/>
<path d="M167.9 287.9H162L160.4 286.3L158.1 283.9L145.6 271.2L143.4 268.9L142.4 267.9C142.9 266.5 143.4 265.1 143.9 263.7L145.1 264.9L147.1 266.8L164.1 283.8L167.9 287.9Z" fill="#0080FF"/>
<path d="M76.8 216.8V222L72.8 218V212.8L74.6 214.6L76.8 216.8Z" fill="#0080FF"/>
<path d="M143.7 287.9C143.7 288.5 143.7 289.1 143.8 289.7L142.1 287.9L139.7 285.5L138.1 283.9H139.7C139.7 282.5 139.8 281.2 140 279.9L140.9 280.8L143.7 283.6L144 283.9L146.9 286.8L148 287.9H143.7Z" fill="#0080FF"/>
<path d="M193.6 293.6L191.5 294.6L189.6 295.6L189.3 295.3C189.3 295.3 189.2 295.3 189.2 295.2L184.2 290.2C184 289.5 183.8 288.8 183.7 288H182L179.6 285.6L178 284L151.5 257.2L150.1 255.8L148.6 254.3C149.3 253.2 150.1 252 150.8 251L152.4 252.6L153.7 253.9L183.9 284.1L185.3 285.4L185.6 285.7L187.8 287.9L188 288.1L193.6 293.6Z" fill="#0080FF"/>
<path d="M157.1 243.6L158.6 245.1L159.9 246.4L187.9 274.7L189.3 276.1L190.7 277.5L197.1 283.9L197.9 284.8L200.1 287V284.7V281.1L197.4 278.4L194 275L192.5 273.5L191.1 272.1L162.8 243.8L161.3 242.3L159.9 240.9L157.1 243.6Z" fill="#0080FF"/>
<path d="M200.1 261.6V267.5L197.5 264.8L170.8 237.8L169.1 236.1L167.9 234.9C169 234.2 170.2 233.5 171.4 232.8L174.4 235.8L197.5 258.9L200.1 261.6Z" fill="#0080FF"/>
<path d="M182.2 228.5L183.8 230.1L185.4 231.8L197.4 243.9L200.1 246.6V240.6L197.4 238L190.2 230.8L188.6 229.2L186.8 227.3L182.2 228.5Z" fill="#0080FF"/>
<path d="M198.6 218.4V224.3L197.4 223.2V217.3L198.6 218.4Z" fill="#0080FF"/>
<path d="M220.5 229.8L220.1 231.8L220 232.1C215.6 230.5 209 228.9 201.4 228.6C200.7 228.6 200.1 228.5 199.4 228.5C198.7 228.5 198.1 228.5 197.4 228.5C194.5 228.5 191.6 228.8 188.6 229.2C187 229.4 185.4 229.8 183.8 230.2C183.6 230.2 183.4 230.3 183.1 230.4C179.6 231.3 176.1 232.6 172.7 234.3C171.5 234.9 170.3 235.6 169.1 236.3C166.4 238 163.8 240 161.3 242.3C161.1 242.4 161 242.6 160.8 242.8C160.4 243.2 160 243.6 159.6 244.1C159.3 244.4 159 244.8 158.6 245.1C156.3 247.6 154.2 250.1 152.5 252.5C151.7 253.6 150.9 254.7 150.2 255.8C149.8 256.4 149.4 257.1 149 257.7C147.4 260.2 146.1 262.7 145 265C144.3 266.4 143.8 267.8 143.3 269.1C141.6 273.7 140.9 277.7 140.8 280.9C140.8 282 140.8 283.1 140.9 284C141 284.7 141.1 285.4 141.2 286C141.3 286.4 141.4 286.8 141.5 287.1H141.6L143.6 287L146.8 286.9L160.3 286.4L166 286.2L169.1 286.1L179.5 285.7L183.5 285.5L185.2 285.4H185.5L187.5 285.3L197.8 284.9L199.4 284.8H200L201.4 284.7L211.7 284.3L213.7 284.2L215.5 284.1V288.8C214.1 296.2 207.5 301.9 199.7 301.9C192.3 301.9 186.1 296.9 184.2 290.2C184 289.5 183.8 288.8 183.7 288H143.7C143.7 288.6 143.7 289.2 143.8 289.8C144.6 301.5 149 312.2 156 320.8L153.3 320.6L150.7 320.4C144.2 311.2 140.2 300 139.7 288H76.8V302.1L74.8 298.2L72.8 294.4V288H69.4L68.4 286L68.1 285.4L67.4 284L65.7 280.7L69 284H72.9V275.7L52.3 255L46.2 243.2L72.8 269.8V255.3L30.1 212.4L29.9 212.2L25 202.6L25.4 202.3L72.8 249.4V234.3L34.1 195.2L37.1 192.7L72.8 228.4V212.8L45.8 185.6L48.8 183.2L72.8 207.3V192.8L56.8 176.7L59.8 174.3L72.8 187.4V172.8L67.8 167.8L71 165L72.8 166.8V163.6L73.9 162.7L74.1 162.6L74.6 162.7H74.8V195.6L76.8 194.6V284H139.7C139.7 282.6 139.8 281.3 140 280C140.4 275.9 141.2 271.9 142.4 268.1C142.9 266.7 143.4 265.3 143.9 263.9C145.2 260.5 146.9 257.3 148.8 254.3C149.5 253.2 150.3 252 151 251C152.9 248.4 155 246 157.2 243.7L160 241C162.5 238.8 165.1 236.8 167.9 235.1C169 234.4 170.2 233.7 171.4 233C174.8 231.2 178.4 229.7 182.2 228.5L186.8 227.3C190.3 226.5 193.8 226.1 197.5 226V186.6L199.5 187L201.5 187.4V226C208.1 226.2 214.6 227.6 220.5 229.8Z" fill="#0A2756"/>
<path d="M49.6 284.6L46.8 285.9L45.6 286.6L45 285.9L1.99998 242.5L0.599976 241.1V235.6L1.99998 237L49.6 284.6Z" fill="#FFB32C"/>
<path d="M29.6 284.6L26.8 285.9L25.6 286.6L25 285.9L1.99998 262.7L0.599976 261.3V255.6L1.99998 257L29.6 284.6Z" fill="#FFB32C"/>
<path d="M69.6 284.6L68.1 285.3L66.8 285.9L65.6 286.6L65 285.9L63 283.9L3.99998 224.3L1.99998 222.3L0.599976 220.9V215.6L1.99998 217L65.7 280.7L68.9 283.9L69.6 284.6Z" fill="#FFB32C"/>
<path d="M76.1 273.1V279L74.8 277.7L72.8 275.7L52.3 255L3.99998 206.2L1.99998 204.1L0.599976 202.7V197.6L1.99998 199L74.8 271.8L76.1 273.1Z" fill="#FFB32C"/>
<path d="M76.1 252.6V258.6L72.8 255.3L30.1 212.3L30 212.1L3.99998 186L1.09998 183.1L1.59998 181.6H2.59998L1.09998 178.1L3.99998 181L25.4 202.3L72.8 249.4L76.1 252.6Z" fill="#FFB32C"/>
<path d="M76.1 231.6V237.6L72.8 234.3L34.1 195.2L28.9 189.9L3.99998 165.4L1.09998 162.6V157.6L3.99998 160.4L34.3 189.9L37.1 192.7L72.8 228.4L76.1 231.6Z" fill="#FFB32C"/>
<path d="M74.6 189.1V194.6L72.8 192.8L56.8 176.6L3.99998 123.3L1.99998 121.3L0.599976 119.9V114.7L1.99998 116.1L3.99998 118.2L59.8 174.2L72.8 187.3L74.6 189.1Z" fill="#FFB32C"/>
<path d="M74.6 209.1V214.6L72.8 212.8L45.8 185.6L3.99998 143.5L1.99998 141.4L0.599976 140V134.8L1.99998 136.2L3.99998 138.2L48.8 183.2L72.8 207.3L74.6 209.1Z" fill="#FFB32C"/>
<path d="M74.8 168.8V174.7L74.6 174.5L72.8 172.7L67.8 167.7L3.99998 103.2L1.99998 101.2L0.599976 99.7001V94.6001L1.99998 96.0001L3.99998 98.0001L71 165L72.8 166.8L74.6 168.6L74.8 168.8Z" fill="#FFB32C"/>
<path d="M5.5 86.6001L7.4 88.5001L74.6 156.3L74.8 156.5V150.8L74.6 150.6L12.5 88.5001L10.6 86.6001H5.5Z" fill="#FFB32C"/>
<path d="M74.8 130.5L74.6 130.2L32.5 88.5001L30.6 86.6001H25.5L27.4 88.5001L74.6 135.9L74.8 136.2V130.5Z" fill="#FFB32C"/>
<path d="M74.8 109.4L74.6 109.1L53.9 88.5001L52 86.6001H46.5L48.4 88.5001L74.6 114.9L74.8 115.1V109.4Z" fill="#FFB32C"/>
<path d="M74.8 162.7V168.8V174.7V195.6H74.6V194.6V189.1V174.5V168.6V162.7V156.3V150.6V135.9V130.2V114.9V109.1V103.6H74.8V109.4V115.1V130.5V136.2V150.8V156.5V162.7Z" fill="#0A2756"/>
<path d="M76.8 109.4H72.8V115.1H76.8V109.4Z" fill="#FFB32C"/>
<path d="M76.8 130.5H72.8V136.2H76.8V130.5Z" fill="#FFB32C"/>
<path d="M325 0V473.1H72.8V150.8H76.8V469.1H321V4H76.8V103.6H72.8V0H325Z" fill="#FFB32C"/>
<path d="M183.8 230.1C183.6 230.1 183.4 230.2 183.1 230.3C179.6 231.2 176.1 232.5 172.7 234.2C171.5 234.8 170.3 235.5 169.1 236.2L170.8 237.9C172 237.2 173.2 236.5 174.4 235.9C177.9 234.1 181.6 232.7 185.5 231.7L183.8 230.1ZM183.8 230.1C183.6 230.1 183.4 230.2 183.1 230.3C179.6 231.2 176.1 232.5 172.7 234.2C171.5 234.8 170.3 235.5 169.1 236.2C166.4 237.9 163.8 239.9 161.3 242.2C161.1 242.3 161 242.5 160.8 242.7C160.4 243.1 160 243.5 159.6 244C159.3 244.3 159 244.7 158.6 245L159.9 246.3C160.8 245.4 161.8 244.5 162.7 243.6C165.2 241.4 167.9 239.5 170.7 237.8C171.9 237.1 173.1 236.4 174.3 235.8C177.8 234 181.5 232.6 185.4 231.6L183.8 230.1ZM183.8 230.1C183.6 230.1 183.4 230.2 183.1 230.3C179.6 231.2 176.1 232.5 172.7 234.2C171.5 234.8 170.3 235.5 169.1 236.2C166.4 237.9 163.8 239.9 161.3 242.2C161.1 242.3 161 242.5 160.8 242.7C160.4 243.1 160 243.5 159.6 244C159.3 244.3 159 244.7 158.6 245L159.9 246.3C160.8 245.4 161.8 244.5 162.7 243.6C165.2 241.4 167.9 239.5 170.7 237.8C171.9 237.1 173.1 236.4 174.3 235.8C177.8 234 181.5 232.6 185.4 231.6L183.8 230.1ZM183.8 230.1C183.6 230.1 183.4 230.2 183.1 230.3C179.6 231.2 176.1 232.5 172.7 234.2C171.5 234.8 170.3 235.5 169.1 236.2C166.4 237.9 163.8 239.9 161.3 242.2C161.1 242.3 161 242.5 160.8 242.7C160.4 243.1 160 243.5 159.6 244C159.3 244.3 159 244.7 158.6 245L159.9 246.3C160.8 245.4 161.8 244.5 162.7 243.6C165.2 241.4 167.9 239.5 170.7 237.8C171.9 237.1 173.1 236.4 174.3 235.8C177.8 234 181.5 232.6 185.4 231.6L183.8 230.1ZM183.8 230.1C183.6 230.1 183.4 230.2 183.1 230.3C179.6 231.2 176.1 232.5 172.7 234.2C171.5 234.8 170.3 235.5 169.1 236.2C166.4 237.9 163.8 239.9 161.3 242.2C161.1 242.3 161 242.5 160.8 242.7C160.4 243.1 160 243.5 159.6 244C159.3 244.3 159 244.7 158.6 245L159.9 246.3C160.8 245.4 161.8 244.5 162.7 243.6C165.2 241.4 167.9 239.5 170.7 237.8C171.9 237.1 173.1 236.4 174.3 235.8C177.8 234 181.5 232.6 185.4 231.6L183.8 230.1ZM183.8 230.1C183.6 230.1 183.4 230.2 183.1 230.3C179.6 231.2 176.1 232.5 172.7 234.2C171.5 234.8 170.3 235.5 169.1 236.2C166.4 237.9 163.8 239.9 161.3 242.2C161.1 242.3 161 242.5 160.8 242.7C160.4 243.1 160 243.5 159.6 244C159.3 244.3 159 244.7 158.6 245L159.9 246.3C160.8 245.4 161.8 244.5 162.7 243.6C165.2 241.4 167.9 239.5 170.7 237.8C171.9 237.1 173.1 236.4 174.3 235.8C177.8 234 181.5 232.6 185.4 231.6L183.8 230.1ZM183.8 230.1C183.6 230.1 183.4 230.2 183.1 230.3C179.6 231.2 176.1 232.5 172.7 234.2C171.5 234.8 170.3 235.5 169.1 236.2C166.4 237.9 163.8 239.9 161.3 242.2C161.1 242.3 161 242.5 160.8 242.7C160.4 243.1 160 243.5 159.6 244C159.3 244.3 159 244.7 158.6 245L159.9 246.3C160.8 245.4 161.8 244.5 162.7 243.6C165.2 241.4 167.9 239.5 170.7 237.8C171.9 237.1 173.1 236.4 174.3 235.8C177.8 234 181.5 232.6 185.4 231.6L183.8 230.1ZM183.8 230.1C183.6 230.1 183.4 230.2 183.1 230.3C179.6 231.2 176.1 232.5 172.7 234.2C171.5 234.8 170.3 235.5 169.1 236.2C166.4 237.9 163.8 239.9 161.3 242.2C161.1 242.3 161 242.5 160.8 242.7C160.4 243.1 160 243.5 159.6 244C159.3 244.3 159 244.7 158.6 245L159.9 246.3C160.8 245.4 161.8 244.5 162.7 243.6C165.2 241.4 167.9 239.5 170.7 237.8C171.9 237.1 173.1 236.4 174.3 235.8C177.8 234 181.5 232.6 185.4 231.6L183.8 230.1ZM183.8 230.1C183.6 230.1 183.4 230.2 183.1 230.3C179.6 231.2 176.1 232.5 172.7 234.2C171.5 234.8 170.3 235.5 169.1 236.2C166.4 237.9 163.8 239.9 161.3 242.2C161.1 242.3 161 242.5 160.8 242.7C160.4 243.1 160 243.5 159.6 244C159.3 244.3 159 244.7 158.6 245L159.9 246.3C160.8 245.4 161.8 244.5 162.7 243.6C165.2 241.4 167.9 239.5 170.7 237.8C171.9 237.1 173.1 236.4 174.3 235.8C177.8 234 181.5 232.6 185.4 231.6L183.8 230.1ZM183.8 230.1C183.6 230.1 183.4 230.2 183.1 230.3C179.6 231.2 176.1 232.5 172.7 234.2C171.5 234.8 170.3 235.5 169.1 236.2C166.4 237.9 163.8 239.9 161.3 242.2C161.1 242.3 161 242.5 160.8 242.7C160.4 243.1 160 243.5 159.6 244C159.3 244.3 159 244.7 158.6 245L159.9 246.3C160.8 245.4 161.8 244.5 162.7 243.6C165.2 241.4 167.9 239.5 170.7 237.8C171.9 237.1 173.1 236.4 174.3 235.8C177.8 234 181.5 232.6 185.4 231.6L183.8 230.1ZM183.8 230.1C183.6 230.1 183.4 230.2 183.1 230.3C179.6 231.2 176.1 232.5 172.7 234.2C171.5 234.8 170.3 235.5 169.1 236.2C166.4 237.9 163.8 239.9 161.3 242.2C161.1 242.3 161 242.5 160.8 242.7C160.4 243.1 160 243.5 159.6 244C159.3 244.3 159 244.7 158.6 245L159.9 246.3C160.8 245.4 161.8 244.5 162.7 243.6C165.2 241.4 167.9 239.5 170.7 237.8C171.9 237.1 173.1 236.4 174.3 235.8C177.8 234 181.5 232.6 185.4 231.6L183.8 230.1ZM183.8 230.1C183.6 230.1 183.4 230.2 183.1 230.3C179.6 231.2 176.1 232.5 172.7 234.2C171.5 234.8 170.3 235.5 169.1 236.2C166.4 237.9 163.8 239.9 161.3 242.2C161.1 242.3 161 242.5 160.8 242.7C160.4 243.1 160 243.5 159.6 244C159.3 244.3 159 244.7 158.6 245L159.9 246.3C160.8 245.4 161.8 244.5 162.7 243.6C165.2 241.4 167.9 239.5 170.7 237.8C171.9 237.1 173.1 236.4 174.3 235.8C177.8 234 181.5 232.6 185.4 231.6L183.8 230.1ZM220.5 229.8C214.5 227.5 208.1 226.2 201.4 226C200.7 226 200.1 226 199.4 226C199.1 226 198.8 226 198.5 226C198.1 226 197.7 226 197.4 226C193.8 226.1 190.2 226.6 186.7 227.3C185.2 227.6 183.6 228 182.1 228.5C178.3 229.6 174.7 231.1 171.3 233C170.1 233.7 168.9 234.3 167.8 235.1C165 236.9 162.3 238.8 159.9 241C158.9 241.9 158 242.7 157.1 243.7C154.8 246 152.8 248.4 150.9 251C150.1 252.1 149.4 253.2 148.7 254.3C146.8 257.3 145.2 260.5 143.8 263.9C143.3 265.3 142.8 266.7 142.3 268.1C141.1 271.9 140.3 275.9 139.9 280C139.8 281.3 139.7 282.7 139.6 284C139.6 284.5 139.6 285 139.6 285.6V285.9C139.6 286.6 139.6 287.3 139.6 288C140 300 144 311.2 150.6 320.4C161.5 335.7 179.3 345.7 199.4 345.7C232.4 345.7 259.2 318.9 259.2 285.9C259.3 260.2 243.1 238.4 220.5 229.8ZM199.4 341.7C181.8 341.7 166.1 333.5 155.9 320.7C149 312.1 144.6 301.4 143.7 289.7C143.7 289.1 143.6 288.5 143.6 287.9C143.6 287.6 143.6 287.3 143.6 286.9C143.6 286.5 143.6 286.1 143.6 285.7C143.6 285.1 143.6 284.5 143.6 283.8C143.6 283.7 143.6 283.6 143.6 283.5C143.8 279.2 144.4 275.1 145.5 271.1C145.9 269.6 146.3 268.2 146.9 266.7C148.1 263.3 149.7 260 151.5 256.9C152.2 255.7 152.9 254.6 153.7 253.5C155.5 250.9 157.6 248.4 159.9 246.2C160.8 245.3 161.8 244.4 162.7 243.5C165.2 241.3 167.9 239.4 170.7 237.7C171.9 237 173.1 236.3 174.3 235.7C177.8 233.9 181.5 232.5 185.4 231.5C187 231.1 188.5 230.7 190.2 230.5C192.6 230.1 195 229.8 197.5 229.8C198.2 229.8 198.8 229.8 199.5 229.8C200.2 229.8 200.8 229.8 201.5 229.8C231.4 230.8 255.3 255.5 255.3 285.6C255.3 316.6 230.2 341.7 199.4 341.7ZM183.8 230.1C183.6 230.1 183.4 230.2 183.1 230.3C179.6 231.2 176.1 232.5 172.7 234.2C171.5 234.8 170.3 235.5 169.1 236.2C166.4 237.9 163.8 239.9 161.3 242.2C161.1 242.3 161 242.5 160.8 242.7C160.4 243.1 160 243.5 159.6 244C159.3 244.3 159 244.7 158.6 245L159.9 246.3C160.8 245.4 161.8 244.5 162.7 243.6C165.2 241.4 167.9 239.5 170.7 237.8C171.9 237.1 173.1 236.4 174.3 235.8C177.8 234 181.5 232.6 185.4 231.6L183.8 230.1ZM183.8 230.1C183.6 230.1 183.4 230.2 183.1 230.3C179.6 231.2 176.1 232.5 172.7 234.2C171.5 234.8 170.3 235.5 169.1 236.2C166.4 237.9 163.8 239.9 161.3 242.2C161.1 242.3 161 242.5 160.8 242.7C160.4 243.1 160 243.5 159.6 244C159.3 244.3 159 244.7 158.6 245L159.9 246.3C160.8 245.4 161.8 244.5 162.7 243.6C165.2 241.4 167.9 239.5 170.7 237.8C171.9 237.1 173.1 236.4 174.3 235.8C177.8 234 181.5 232.6 185.4 231.6L183.8 230.1ZM183.8 230.1C183.6 230.1 183.4 230.2 183.1 230.3C179.6 231.2 176.1 232.5 172.7 234.2C171.5 234.8 170.3 235.5 169.1 236.2C166.4 237.9 163.8 239.9 161.3 242.2C161.1 242.3 161 242.5 160.8 242.7C160.4 243.1 160 243.5 159.6 244C159.3 244.3 159 244.7 158.6 245L159.9 246.3C160.8 245.4 161.8 244.5 162.7 243.6C165.2 241.4 167.9 239.5 170.7 237.8C171.9 237.1 173.1 236.4 174.3 235.8C177.8 234 181.5 232.6 185.4 231.6L183.8 230.1ZM183.8 230.1C183.6 230.1 183.4 230.2 183.1 230.3C179.6 231.2 176.1 232.5 172.7 234.2C171.5 234.8 170.3 235.5 169.1 236.2C166.4 237.9 163.8 239.9 161.3 242.2C161.1 242.3 161 242.5 160.8 242.7C160.4 243.1 160 243.5 159.6 244C159.3 244.3 159 244.7 158.6 245L159.9 246.3C160.8 245.4 161.8 244.5 162.7 243.6C165.2 241.4 167.9 239.5 170.7 237.8C171.9 237.1 173.1 236.4 174.3 235.8C177.8 234 181.5 232.6 185.4 231.6L183.8 230.1ZM183.8 230.1C183.6 230.1 183.4 230.2 183.1 230.3C179.6 231.2 176.1 232.5 172.7 234.2C171.5 234.8 170.3 235.5 169.1 236.2C166.4 237.9 163.8 239.9 161.3 242.2C161.1 242.3 161 242.5 160.8 242.7C160.4 243.1 160 243.5 159.6 244C159.3 244.3 159 244.7 158.6 245L159.9 246.3C160.8 245.4 161.8 244.5 162.7 243.6C165.2 241.4 167.9 239.5 170.7 237.8C171.9 237.1 173.1 236.4 174.3 235.8C177.8 234 181.5 232.6 185.4 231.6L183.8 230.1ZM183.8 230.1C183.6 230.1 183.4 230.2 183.1 230.3C179.6 231.2 176.1 232.5 172.7 234.2C171.5 234.8 170.3 235.5 169.1 236.2C166.4 237.9 163.8 239.9 161.3 242.2C161.1 242.3 161 242.5 160.8 242.7C160.4 243.1 160 243.5 159.6 244C159.3 244.3 159 244.7 158.6 245L159.9 246.3C160.8 245.4 161.8 244.5 162.7 243.6C165.2 241.4 167.9 239.5 170.7 237.8C171.9 237.1 173.1 236.4 174.3 235.8C177.8 234 181.5 232.6 185.4 231.6L183.8 230.1ZM183.8 230.1C183.6 230.1 183.4 230.2 183.1 230.3C179.6 231.2 176.1 232.5 172.7 234.2C171.5 234.8 170.3 235.5 169.1 236.2C166.4 237.9 163.8 239.9 161.3 242.2C161.1 242.3 161 242.5 160.8 242.7C160.4 243.1 160 243.5 159.6 244C159.3 244.3 159 244.7 158.6 245L159.9 246.3C160.8 245.4 161.8 244.5 162.7 243.6C165.2 241.4 167.9 239.5 170.7 237.8C171.9 237.1 173.1 236.4 174.3 235.8C177.8 234 181.5 232.6 185.4 231.6L183.8 230.1ZM183.8 230.1C183.6 230.1 183.4 230.2 183.1 230.3C179.6 231.2 176.1 232.5 172.7 234.2C171.5 234.8 170.3 235.5 169.1 236.2C166.4 237.9 163.8 239.9 161.3 242.2C161.1 242.3 161 242.5 160.8 242.7C160.4 243.1 160 243.5 159.6 244C159.3 244.3 159 244.7 158.6 245L159.9 246.3C160.8 245.4 161.8 244.5 162.7 243.6C165.2 241.4 167.9 239.5 170.7 237.8C171.9 237.1 173.1 236.4 174.3 235.8C177.8 234 181.5 232.6 185.4 231.6L183.8 230.1ZM183.8 230.1C183.6 230.1 183.4 230.2 183.1 230.3C179.6 231.2 176.1 232.5 172.7 234.2C171.5 234.8 170.3 235.5 169.1 236.2C166.4 237.9 163.8 239.9 161.3 242.2C161.1 242.3 161 242.5 160.8 242.7C160.4 243.1 160 243.5 159.6 244C159.3 244.3 159 244.7 158.6 245L159.9 246.3C160.8 245.4 161.8 244.5 162.7 243.6C165.2 241.4 167.9 239.5 170.7 237.8C171.9 237.1 173.1 236.4 174.3 235.8C177.8 234 181.5 232.6 185.4 231.6L183.8 230.1ZM183.8 230.1C183.6 230.1 183.4 230.2 183.1 230.3C179.6 231.2 176.1 232.5 172.7 234.2C171.5 234.8 170.3 235.5 169.1 236.2C166.4 237.9 163.8 239.9 161.3 242.2C161.1 242.3 161 242.5 160.8 242.7C160.4 243.1 160 243.5 159.6 244C159.3 244.3 159 244.7 158.6 245L159.9 246.3C160.8 245.4 161.8 244.5 162.7 243.6C165.2 241.4 167.9 239.5 170.7 237.8C171.9 237.1 173.1 236.4 174.3 235.8C177.8 234 181.5 232.6 185.4 231.6L183.8 230.1ZM183.8 230.1C183.6 230.1 183.4 230.2 183.1 230.3C179.6 231.2 176.1 232.5 172.7 234.2C171.5 234.8 170.3 235.5 169.1 236.2C166.4 237.9 163.8 239.9 161.3 242.2C161.1 242.3 161 242.5 160.8 242.7C160.4 243.1 160 243.5 159.6 244C159.3 244.3 159 244.7 158.6 245L159.9 246.3C160.8 245.4 161.8 244.5 162.7 243.6C165.2 241.4 167.9 239.5 170.7 237.8C171.9 237.1 173.1 236.4 174.3 235.8C177.8 234 181.5 232.6 185.4 231.6L183.8 230.1Z" fill="#0080FF"/>
<path d="M72.8 103.6V109.4H76.8V103.6H72.8ZM72.8 115.1V130.5H76.8V115.1H72.8ZM72.8 136.2V156.6H76.8V136.2H72.8ZM72.8 162.7V168.8H76.8V162.7H72.8ZM72.8 174.7V195.5H76.8V174.7H72.8ZM72.8 103.6V109.4H76.8V103.6H72.8ZM72.8 174.7V195.5H76.8V174.7H72.8ZM72.8 162.7V168.8H76.8V162.7H72.8ZM72.8 136.2V156.6H76.8V136.2H72.8ZM72.8 115.1V130.5H76.8V115.1H72.8ZM72.8 103.6V109.4H76.8V103.6H72.8ZM72.8 115.1V130.5H76.8V115.1H72.8ZM72.8 136.2V156.6H76.8V136.2H72.8ZM72.8 162.7V168.8H76.8V162.7H72.8ZM72.8 174.7V195.5H76.8V174.7H72.8ZM72.8 103.6V109.4H76.8V103.6H72.8ZM72.8 174.7V195.5H76.8V174.7H72.8ZM72.8 162.7V168.8H76.8V162.7H72.8ZM72.8 136.2V156.6H76.8V136.2H72.8ZM72.8 115.1V130.5H76.8V115.1H72.8ZM72.8 103.6V109.4H76.8V103.6H72.8ZM72.8 115.1V130.5H76.8V115.1H72.8ZM72.8 136.2V156.6H76.8V136.2H72.8ZM72.8 162.7V168.8H76.8V162.7H72.8ZM72.8 174.7V195.5H76.8V174.7H72.8ZM72.8 103.6V109.4H76.8V103.6H72.8ZM72.8 174.7V195.5H76.8V174.7H72.8ZM72.8 162.7V168.8H76.8V162.7H72.8ZM72.8 136.2V156.6H76.8V136.2H72.8ZM72.8 115.1V130.5H76.8V115.1H72.8ZM72.8 103.6V109.4H76.8V103.6H72.8ZM72.8 115.1V130.5H76.8V115.1H72.8ZM72.8 136.2V156.6H76.8V136.2H72.8ZM72.8 162.7V168.8H76.8V162.7H72.8ZM72.8 174.7V195.5H76.8V174.7H72.8ZM72.8 103.6V109.4H76.8V103.6H72.8ZM72.8 174.7V195.5H76.8V174.7H72.8ZM72.8 162.7V168.8H76.8V162.7H72.8ZM72.8 136.2V156.6H76.8V136.2H72.8ZM72.8 115.1V130.5H76.8V115.1H72.8ZM72.8 103.6V109.4H76.8V103.6H72.8ZM72.8 115.1V130.5H76.8V115.1H72.8ZM72.8 136.2V156.6H76.8V136.2H72.8ZM72.8 162.7V168.8H76.8V162.7H72.8ZM72.8 174.7V195.5H76.8V174.7H72.8ZM72.8 103.6V109.4H76.8V103.6H72.8ZM72.8 174.7V195.5H76.8V174.7H72.8ZM72.8 162.7V168.8H76.8V162.7H72.8ZM72.8 136.2V156.6H76.8V136.2H72.8ZM72.8 115.1V130.5H76.8V115.1H72.8ZM72.8 103.6V109.4H76.8V103.6H72.8ZM72.8 115.1V130.5H76.8V115.1H72.8ZM72.8 136.2V156.6H76.8V136.2H72.8ZM72.8 162.7V168.8H76.8V162.7H72.8ZM72.8 174.7V195.5H76.8V174.7H72.8ZM72.8 103.6V109.4H76.8V103.6H72.8ZM72.8 174.7V195.5H76.8V174.7H72.8ZM72.8 162.7V168.8H76.8V162.7H72.8ZM72.8 136.2V156.6H76.8V136.2H72.8ZM72.8 115.1V130.5H76.8V115.1H72.8ZM72.8 103.6V109.4H76.8V103.6H72.8ZM72.8 115.1V130.5H76.8V115.1H72.8ZM72.8 136.2V156.6H76.8V136.2H72.8ZM72.8 162.7V168.8H76.8V162.7H72.8ZM72.8 174.7V195.5H76.8V174.7H72.8ZM72.8 103.6V109.4H76.8V103.6H72.8ZM72.8 174.7V195.5H76.8V174.7H72.8ZM72.8 162.7V168.8H76.8V162.7H72.8ZM72.8 136.2V156.6H76.8V136.2H72.8ZM72.8 115.1V130.5H76.8V115.1H72.8ZM72.8 103.6V109.4H76.8V103.6H72.8ZM72.8 115.1V130.5H76.8V115.1H72.8ZM72.8 136.2V156.6H76.8V136.2H72.8ZM72.8 162.7V168.8H76.8V162.7H72.8ZM72.8 174.7V195.5H76.8V174.7H72.8ZM72.8 103.6V109.4H76.8V103.6H72.8ZM72.8 174.7V195.5H76.8V174.7H72.8ZM72.8 162.7V168.8H76.8V162.7H72.8ZM72.8 136.2V156.6H76.8V136.2H72.8ZM72.8 115.1V130.5H76.8V115.1H72.8ZM72.8 103.6V109.4H76.8V103.6H72.8ZM72.8 115.1V130.5H76.8V115.1H72.8ZM72.8 136.2V156.6H76.8V136.2H72.8ZM72.8 162.7V168.8H76.8V162.7H72.8ZM72.8 174.7V195.5H76.8V174.7H72.8ZM72.8 103.6V109.4H76.8V103.6H72.8ZM72.8 174.7V195.5H76.8V174.7H72.8ZM72.8 162.7V168.8H76.8V162.7H72.8ZM72.8 136.2V156.6H76.8V136.2H72.8ZM72.8 115.1V130.5H76.8V115.1H72.8ZM72.8 103.6V109.4H76.8V103.6H72.8ZM72.8 115.1V130.5H76.8V115.1H72.8ZM72.8 136.2V156.6H76.8V136.2H72.8ZM72.8 162.7V168.8H76.8V162.7H72.8ZM72.8 174.7V195.5H76.8V174.7H72.8ZM72.8 103.6V109.4H76.8V103.6H72.8ZM72.8 174.7V195.5H76.8V174.7H72.8ZM72.8 162.7V168.8H76.8V162.7H72.8ZM72.8 136.2V156.6H76.8V136.2H72.8ZM72.8 115.1V130.5H76.8V115.1H72.8ZM72.8 103.6V109.4H76.8V103.6H72.8ZM72.8 115.1V130.5H76.8V115.1H72.8ZM72.8 136.2V156.6H76.8V136.2H72.8ZM72.8 162.7V168.8H76.8V162.7H72.8ZM72.8 174.7V195.5H76.8V174.7H72.8ZM72.8 103.6V109.4H76.8V103.6H72.8ZM72.8 174.7V195.5H76.8V174.7H72.8ZM72.8 162.7V168.8H76.8V162.7H72.8ZM72.8 136.2V156.6H76.8V136.2H72.8ZM72.8 115.1V130.5H76.8V115.1H72.8ZM72.8 103.6V109.4H76.8V103.6H72.8ZM72.8 115.1V130.5H76.8V115.1H72.8ZM72.8 136.2V156.6H76.8V136.2H72.8ZM72.8 162.7V168.8H76.8V162.7H72.8ZM72.8 174.7V195.5H76.8V174.7H72.8ZM72.8 103.6V109.4H76.8V103.6H72.8ZM72.8 174.7V195.5H76.8V174.7H72.8ZM72.8 162.7V168.8H76.8V162.7H72.8ZM72.8 136.2V156.6H76.8V136.2H72.8ZM72.8 115.1V130.5H76.8V115.1H72.8ZM0 86.5V288H201.4V86.5H0ZM4 283.9V90.5H197.4V284H4V283.9ZM72.8 174.7V195.5H76.8V174.7H72.8ZM72.8 162.7V168.8H76.8V162.7H72.8ZM72.8 136.2V156.6H76.8V136.2H72.8ZM72.8 115.1V130.5H76.8V115.1H72.8ZM72.8 103.6V109.4H76.8V103.6H72.8ZM72.8 115.1V130.5H76.8V115.1H72.8ZM72.8 136.2V156.6H76.8V136.2H72.8ZM72.8 162.7V168.8H76.8V162.7H72.8ZM72.8 174.7V195.5H76.8V174.7H72.8ZM72.8 103.6V109.4H76.8V103.6H72.8ZM72.8 174.7V195.5H76.8V174.7H72.8ZM72.8 162.7V168.8H76.8V162.7H72.8ZM72.8 136.2V156.6H76.8V136.2H72.8ZM72.8 115.1V130.5H76.8V115.1H72.8ZM72.8 103.6V109.4H76.8V103.6H72.8ZM72.8 115.1V130.5H76.8V115.1H72.8ZM72.8 136.2V156.6H76.8V136.2H72.8ZM72.8 162.7V168.8H76.8V162.7H72.8ZM72.8 174.7V195.5H76.8V174.7H72.8ZM72.8 103.6V109.4H76.8V103.6H72.8ZM72.8 174.7V195.5H76.8V174.7H72.8ZM72.8 162.7V168.8H76.8V162.7H72.8ZM72.8 136.2V156.6H76.8V136.2H72.8ZM72.8 115.1V130.5H76.8V115.1H72.8ZM72.8 103.6V109.4H76.8V103.6H72.8ZM72.8 115.1V130.5H76.8V115.1H72.8ZM72.8 136.2V156.6H76.8V136.2H72.8ZM72.8 162.7V168.8H76.8V162.7H72.8ZM72.8 174.7V195.5H76.8V174.7H72.8ZM72.8 103.6V109.4H76.8V103.6H72.8ZM72.8 174.7V195.5H76.8V174.7H72.8ZM72.8 162.7V168.8H76.8V162.7H72.8ZM72.8 136.2V156.6H76.8V136.2H72.8ZM72.8 115.1V130.5H76.8V115.1H72.8ZM72.8 103.6V109.4H76.8V103.6H72.8ZM72.8 115.1V130.5H76.8V115.1H72.8ZM72.8 136.2V156.6H76.8V136.2H72.8ZM72.8 162.7V168.8H76.8V162.7H72.8ZM72.8 174.7V195.5H76.8V174.7H72.8ZM72.8 103.6V109.4H76.8V103.6H72.8ZM72.8 174.7V195.5H76.8V174.7H72.8ZM72.8 162.7V168.8H76.8V162.7H72.8ZM72.8 136.2V156.6H76.8V136.2H72.8ZM72.8 115.1V130.5H76.8V115.1H72.8ZM72.8 103.6V109.4H76.8V103.6H72.8ZM72.8 115.1V130.5H76.8V115.1H72.8ZM72.8 136.2V156.6H76.8V136.2H72.8ZM72.8 162.7V168.8H76.8V162.7H72.8ZM72.8 174.7V195.5H76.8V174.7H72.8ZM72.8 103.6V109.4H76.8V103.6H72.8ZM72.8 174.7V195.5H76.8V174.7H72.8ZM72.8 162.7V168.8H76.8V162.7H72.8ZM72.8 136.2V156.6H76.8V136.2H72.8ZM72.8 115.1V130.5H76.8V115.1H72.8ZM72.8 103.6V109.4H76.8V103.6H72.8ZM72.8 115.1V130.5H76.8V115.1H72.8ZM72.8 136.2V156.6H76.8V136.2H72.8ZM72.8 162.7V168.8H76.8V162.7H72.8ZM72.8 174.7V195.5H76.8V174.7H72.8ZM72.8 103.6V109.4H76.8V103.6H72.8ZM72.8 174.7V195.5H76.8V174.7H72.8ZM72.8 162.7V168.8H76.8V162.7H72.8ZM72.8 136.2V156.6H76.8V136.2H72.8ZM72.8 115.1V130.5H76.8V115.1H72.8ZM72.8 103.6V109.4H76.8V103.6H72.8ZM72.8 115.1V130.5H76.8V115.1H72.8ZM72.8 136.2V156.6H76.8V136.2H72.8ZM72.8 162.7V168.8H76.8V162.7H72.8ZM72.8 174.7V195.5H76.8V174.7H72.8ZM72.8 103.6V109.4H76.8V103.6H72.8ZM72.8 174.7V195.5H76.8V174.7H72.8ZM72.8 162.7V168.8H76.8V162.7H72.8ZM72.8 136.2V156.6H76.8V136.2H72.8ZM72.8 115.1V130.5H76.8V115.1H72.8ZM72.8 103.6V109.4H76.8V103.6H72.8ZM72.8 115.1V130.5H76.8V115.1H72.8ZM72.8 136.2V156.6H76.8V136.2H72.8ZM72.8 162.7V168.8H76.8V162.7H72.8ZM72.8 174.7V195.5H76.8V174.7H72.8ZM72.8 103.6V109.4H76.8V103.6H72.8ZM72.8 174.7V195.5H76.8V174.7H72.8ZM72.8 162.7V168.8H76.8V162.7H72.8ZM72.8 136.2V156.6H76.8V136.2H72.8ZM72.8 115.1V130.5H76.8V115.1H72.8ZM72.8 103.6V109.4H76.8V103.6H72.8ZM72.8 115.1V130.5H76.8V115.1H72.8ZM72.8 136.2V156.6H76.8V136.2H72.8ZM72.8 162.7V168.8H76.8V162.7H72.8ZM72.8 174.7V195.5H76.8V174.7H72.8ZM72.8 103.6V109.4H76.8V103.6H72.8ZM72.8 174.7V195.5H76.8V174.7H72.8ZM72.8 162.7V168.8H76.8V162.7H72.8ZM72.8 136.2V156.6H76.8V136.2H72.8ZM72.8 115.1V130.5H76.8V115.1H72.8ZM72.8 103.6V109.4H76.8V103.6H72.8ZM72.8 115.1V130.5H76.8V115.1H72.8ZM72.8 136.2V156.6H76.8V136.2H72.8ZM72.8 162.7V168.8H76.8V162.7H72.8ZM72.8 174.7V195.5H76.8V174.7H72.8ZM72.8 103.6V109.4H76.8V103.6H72.8ZM72.8 174.7V195.5H76.8V174.7H72.8ZM72.8 162.7V168.8H76.8V162.7H72.8ZM72.8 136.2V156.6H76.8V136.2H72.8ZM72.8 115.1V130.5H76.8V115.1H72.8ZM72.8 103.6V109.4H76.8V103.6H72.8ZM72.8 115.1V130.5H76.8V115.1H72.8ZM72.8 136.2V156.6H76.8V136.2H72.8ZM72.8 162.7V168.8H76.8V162.7H72.8ZM72.8 174.7V195.5H76.8V174.7H72.8ZM72.8 103.6V109.4H76.8V103.6H72.8ZM72.8 174.7V195.5H76.8V174.7H72.8ZM72.8 162.7V168.8H76.8V162.7H72.8ZM72.8 136.2V156.6H76.8V136.2H72.8ZM72.8 115.1V130.5H76.8V115.1H72.8ZM72.8 103.6V109.4H76.8V103.6H72.8Z" fill="#FFB32C"/>
<path d="M239.9 29.6001C241 29.6001 241.9 28.7001 241.9 27.6001C241.9 26.5001 241 25.6001 239.9 25.6001C238.8 25.6001 237.9 26.5001 237.9 27.6001C237.9 28.7001 238.8 29.6001 239.9 29.6001Z" fill="#FFFFFE"/>
<path d="M158.4 29.6001H228C229.3 29.6001 230.4 28.7001 230.4 27.6001C230.4 26.5001 229.3 25.6001 228 25.6001H158.4C157.1 25.6001 156 26.5001 156 27.6001C156 28.7001 157.1 29.6001 158.4 29.6001Z" fill="#FFFFFE"/>
<path d="M323 393.4H74.8V471.1H323V393.4Z" fill="#FFB32C"/>
<path d="M199.7 299.9C207.5 299.9 213.9 293.6 213.9 285.8C213.9 278 207.6 271.7 199.7 271.7C191.9 271.7 185.6 278 185.6 285.8C185.6 293.6 191.9 299.9 199.7 299.9Z" fill="#0080FF"/>
<path d="M201.4 269.7C201 269.7 200.5 269.6 200 269.6C199.9 269.6 199.8 269.6 199.7 269.6C199.6 269.6 199.5 269.6 199.4 269.6C198.7 269.6 198.1 269.7 197.4 269.7C195.1 270 192.9 270.9 191 272.1C189.8 272.8 188.8 273.7 187.8 274.7C185.5 277.1 184 280.2 183.6 283.7C183.6 283.8 183.6 283.9 183.6 283.9C183.5 284.4 183.5 284.8 183.5 285.3C183.5 285.4 183.5 285.5 183.5 285.7C183.5 285.8 183.5 285.8 183.5 285.9C183.5 286.6 183.5 287.2 183.6 287.9C183.7 288.6 183.9 289.4 184.1 290.1C186 296.9 192.3 301.8 199.6 301.8C207.4 301.8 214 296.2 215.4 288.7C215.6 287.7 215.7 286.7 215.7 285.6C215.9 277.4 209.5 270.5 201.4 269.7ZM199.7 297.9C196.5 297.9 193.6 296.7 191.4 294.7C189.5 293 188.2 290.7 187.7 288C187.7 287.9 187.7 287.9 187.7 287.8C187.6 287.2 187.5 286.6 187.5 286C187.5 285.9 187.5 285.8 187.5 285.8C187.5 285.6 187.5 285.4 187.5 285.3C187.5 284.9 187.6 284.5 187.6 284.1C188 281.6 189 279.4 190.6 277.7C191.5 276.7 192.6 275.8 193.9 275.2C195 274.6 196.1 274.2 197.3 274C198 273.9 198.6 273.8 199.3 273.8C199.4 273.8 199.5 273.8 199.6 273.8C200.2 273.8 200.8 273.8 201.3 273.9C206.7 274.7 211 279 211.6 284.4C211.7 284.9 211.7 285.4 211.7 285.9C211.9 292.4 206.4 297.9 199.7 297.9Z" fill="#FFB32C"/>
<path d="M199.2 455.7C211.7 455.7 221.9 445.9 221.9 433.6C221.9 421.3 211.7 411.5 199.2 411.5C186.7 411.5 176.5 421.3 176.5 433.6C176.5 445.9 186.7 455.7 199.2 455.7Z" fill="#FFB32C"/>
<path d="M199.2 409.5C185.6 409.5 174.5 420.3 174.5 433.6C174.5 446.9 185.6 457.7 199.2 457.7C212.8 457.7 223.9 446.9 223.9 433.6C223.9 420.3 212.8 409.5 199.2 409.5ZM199.2 453.7C187.8 453.7 178.5 444.7 178.5 433.6C178.5 422.5 187.8 413.5 199.2 413.5C210.6 413.5 219.9 422.5 219.9 433.6C219.9 444.7 210.6 453.7 199.2 453.7Z" fill="white"/>
</svg>
