<svg width="326" height="481" viewBox="0 0 326 481" fill="none" xmlns="http://www.w3.org/2000/svg">
<g clip-path="url(#clip0_1_2866)">
<path fill-rule="evenodd" clip-rule="evenodd" d="M156.2 411.8V480.2L206.2 429" fill="#FFB32C"/>
<path d="M182 432.6C133.8 432.6 94.5 393.3 94.5 345C94.5 296.7 133.7 257.4 182 257.4C230.3 257.4 269.5 296.7 269.5 345C269.5 393.3 230.2 432.6 182 432.6ZM182 261.4C136 261.4 98.5 298.9 98.5 345C98.5 391.1 135.9 428.6 182 428.6C228 428.6 265.5 391.1 265.5 345C265.4 298.9 228 261.4 182 261.4Z" fill="#FFB32C"/>
<path d="M182 430.6C229.2 430.6 267.5 392.3 267.5 345C267.5 302.4 236.3 267 195.6 260.5C195.6 264 196.2 290.5 194.2 290.5C167 290.5 118.9 291.9 115 291.9C103.5 306.5 96.6 324.9 96.6 344.9C96.5 392.2 134.7 430.6 182 430.6Z" fill="#FFB32C"/>
<path d="M54.1 121.7L54.4 118.9V116.4L129.3 191.4H123.8L54.1 121.7Z" fill="#FFB32C"/>
<path d="M69 95.7998H74L169 190.8L165 192.8L69 95.7998Z" fill="#FFB32C"/>
<path d="M49 95.7998H54L149 190.8L145 192.8L49 95.7998Z" fill="#FFB32C"/>
<path d="M89 95.7998H94L189 190.8L185 192.8L89 95.7998Z" fill="#FFB32C"/>
<path d="M107 95.7998H112L195.5 179.3V175.8V188.3V185.2L107 95.7998Z" fill="#FFB32C"/>
<path d="M125.5 95.7998L132.7 97.7998V96.0998L195.5 158.9V155.4V167.9V164.8L127.2 95.7998H125.5Z" fill="#FFB32C"/>
<path d="M147 96.2002H152H153.8L195.6 138V134.5V147V143.9L148.4 96.2002H147Z" fill="#FFB32C"/>
<path d="M169.5 96.2002H174.5L194 115.7V112.2V124.7V121.6L168.8 96.2002H169.5Z" fill="#FFB32C"/>
<path d="M135.8 272.7L136.7 271.1L138.6 270.6H139.2L222.1 353.7L219.4 356.4L135.8 272.7Z" fill="#FFB32C"/>
<path d="M123.5 283L124.5 282.1L201.6 359.4L204.1 359.5L207.7 359.9L127.7 279.7V278.8L126.1 280.9L123.5 283Z" fill="#FFB32C"/>
<path d="M148.1 266.7L151.9 264.9L223.3 336.4L220.6 339.2L148.1 266.7Z" fill="#FFB32C"/>
<path d="M161.4 260.2L166.1 259.3L220.3 313.5L219.4 318.1L161.4 260.2Z" fill="#FFB32C"/>
<path d="M181.3 260.1L265.2 344.1L267.7 344.2L269.6 342.7L185.2 258.3H182.8L181.3 260.1Z" fill="#FFB32C"/>
<path fill-rule="evenodd" clip-rule="evenodd" d="M182 332.8C188.7 332.8 194.2 338.3 194.2 345C194.2 351.7 188.7 357.2 182 357.2C175.3 357.2 169.8 351.7 169.8 345C169.6 338.3 175 332.8 182 332.8Z" fill="white"/>
<path d="M228.9 194.1H147.3C93.8 194.1 50.3 150.6 50.3 97.1001C50.3 43.6001 93.8 0.100098 147.3 0.100098H228.9C282.4 0.100098 325.9 43.6001 325.9 97.1001C325.8 150.6 282.3 194.1 228.9 194.1ZM147.3 4.0001C96 4.0001 54.3 45.7001 54.3 97.0001C54.3 148.3 96 190 147.3 190H228.9C280.2 190 321.9 148.3 321.9 97.0001C321.9 45.7001 280.2 4.0001 228.9 4.0001H147.3Z" fill="#FFB32C"/>
<path fill-rule="evenodd" clip-rule="evenodd" d="M189.6 192.7L240.5 244.7V191.7L189.6 192.7Z" fill="#FFB32C"/>
<path fill-rule="evenodd" clip-rule="evenodd" d="M30.1 291V349.8L87 292.2L30.1 291Z" fill="#0080FF"/>
<path fill-rule="evenodd" clip-rule="evenodd" d="M248.9 84.1001C255.6 84.1001 261.1 89.6001 261.1 96.3001C261.1 103 255.6 108.5 248.9 108.5C242.2 108.5 236.7 103 236.7 96.3001C236.6 89.5001 242 84.1001 248.9 84.1001Z" fill="white"/>
<path d="M193.6 288.9V97.7998H3.9V289L193.6 288.9ZM197.5 292.8H0V93.7998H197.5V292.8Z" fill="#0080FF"/>
<path fill-rule="evenodd" clip-rule="evenodd" d="M138.7 84.1001C145.5 84.1001 150.9 89.6001 150.9 96.3001C150.9 103 145.4 108.5 138.7 108.5C132 108.5 126.5 103 126.5 96.3001C126.5 89.6001 132 84.1001 138.7 84.1001Z" fill="white"/>
<path d="M208.7 96.4002C208.7 88.6002 202.3 82.2002 194.5 82.2002C186.5 82.2002 180.1 88.5002 180.3 96.5002C180.3 104.3 186.7 110.7 194.5 110.7C202.3 110.6 208.7 104.2 208.7 96.4002Z" fill="#FFB32C"/>
<path d="M194.5 112.6C185.6 112.6 178.3 105.3 178.3 96.4001C178.2 92.1001 179.8 88.1001 182.7 85.0001C185.8 81.8001 190 80.1001 194.5 80.1001C203.4 80.1001 210.7 87.4001 210.7 96.3001C210.7 105.2 203.4 112.6 194.5 112.6ZM194.5 84.1001C191.1 84.1001 187.9 85.4001 185.6 87.8001C183.4 90.1001 182.2 93.1001 182.3 96.3001C182.3 103.1 187.8 108.6 194.5 108.6C201.2 108.6 206.7 103.1 206.7 96.4001C206.7 89.7001 201.2 84.1001 194.5 84.1001Z" fill="white"/>
<path d="M113.5 192.1C113.5 184.3 107.1 177.9 99.3001 177.9C91.3001 177.9 85.0001 184.3 85.1001 192.1C85.1001 199.9 91.5001 206.3 99.3001 206.3C107.1 206.3 113.5 199.9 113.5 192.1Z" fill="#0080FF"/>
<path d="M99.2 208.3C90.3 208.3 83 201 83 192.1C82.9 187.8 84.6 183.7 87.6 180.7C90.7 177.6 94.8 175.9 99.2 175.9C108.1 175.9 115.4 183.2 115.4 192.1C115.4 201 108.2 208.3 99.2 208.3ZM99.2 179.8C95.8 179.8 92.7 181.1 90.4 183.4C88.1 185.7 86.9 188.8 86.9 192C86.9 198.8 92.4 204.2 99.1 204.2C105.8 204.2 111.3 198.7 111.3 192C111.3 185.3 106 179.8 99.2 179.8Z" fill="white"/>
</g>
<defs>
<clipPath id="clip0_1_2866">
<rect width="325.8" height="480.2" fill="white"/>
</clipPath>
</defs>
</svg>
