<svg width="445" height="30" viewBox="0 0 445 30" fill="none" xmlns="http://www.w3.org/2000/svg">
<path d="M38.8723 15.1258C38.8723 17.3834 38.076 18.4459 36.3506 18.4459C34.6252 18.4459 33.8289 17.3834 33.8289 15.1258V8.88409H31.5726V15.3914C31.5726 18.7115 33.298 20.5707 36.3506 20.5707C39.4032 20.5707 41.1286 18.7115 41.1286 15.3914V8.88409H38.8723V15.1258Z" fill="white"/>
<path d="M51.7463 14.4618C51.7463 17.2506 50.0209 18.4459 48.1628 18.4459C45.9065 18.4459 44.712 16.4538 44.712 14.4618C44.712 11.8057 46.4374 10.4777 48.1628 10.4777C50.2864 10.4777 51.7463 12.2041 51.7463 14.4618ZM48.6937 8.48569C47.101 8.48569 45.7738 9.28251 44.8448 10.6105V8.8841H42.5885V25.3516H44.8448V18.7115C45.7738 20.0395 47.101 20.7035 48.561 20.7035C50.1536 20.7035 51.6136 20.0395 52.5426 18.8443C53.4717 17.7818 54.0026 16.1882 54.0026 14.5946C54.0026 13.001 53.4717 11.5401 52.5426 10.4777C51.6136 9.1497 50.1536 8.48569 48.6937 8.48569Z" fill="white"/>
<path d="M20.0258 9.01691C19.3622 8.6185 18.8313 8.48569 18.1677 8.48569C16.8405 8.48569 15.646 9.2825 15.1151 10.4777V8.75129H12.8589V20.1723H15.1151V14.5946C15.1151 12.7354 15.3806 10.7433 17.6368 10.7433C18.035 10.7433 18.3005 10.7433 18.5659 10.8761L20.0258 9.01691Z" fill="white"/>
<path d="M9.27546 8.75129V10.6105C8.34641 9.28251 7.01919 8.48569 5.42653 8.48569C3.83388 8.48569 2.50666 9.14971 1.57761 10.3449C0.648562 11.4073 0.117676 12.8682 0.117676 14.4618C0.117676 16.0554 0.648562 17.649 1.57761 18.7114C2.50666 19.9067 3.9666 20.5707 5.55926 20.5707C7.01919 20.5707 8.34641 19.7739 9.27546 18.5787V20.3051C9.27546 22.2971 8.87729 24.2892 6.09014 24.2892C4.09932 24.2892 2.77211 23.0939 2.77211 21.2347V21.1019H0.648562V21.2347C0.648562 24.2891 2.90483 26.414 6.09014 26.414C11.0008 26.414 11.6644 22.8283 11.6644 19.6411V8.8841H9.27546V8.75129ZM5.8247 18.4458C3.56843 18.4458 2.37394 16.4538 2.37394 14.4618C2.37394 11.8057 4.09932 10.4777 5.8247 10.4777C7.94824 10.4777 9.40818 12.0713 9.40818 14.4618C9.27546 17.2506 7.55008 18.4458 5.8247 18.4458Z" fill="white"/>
<path d="M74.7071 13.3994C73.6453 13.7978 72.5836 14.0634 71.7872 14.0634C71.1236 14.0634 70.7255 13.9306 70.46 13.5322C70.1946 13.1338 70.1946 12.6026 70.3273 11.8058L70.9909 8.88413C71.2564 7.42331 71.1236 6.36089 70.5927 5.69688C70.0619 5.03287 69.2655 4.76725 68.2038 4.76725C67.0093 4.76725 65.9475 5.16566 64.8857 6.09527C64.4876 5.29846 63.5585 4.76725 62.364 4.76725C61.3022 4.76725 60.3732 5.16566 59.4441 5.82967C59.046 5.16566 57.9842 4.63446 56.7897 4.63446C56.2588 4.63446 55.5952 4.76726 55.0643 4.90006H54.9316L54.5334 7.02491L55.0643 6.75929C55.8607 6.49368 56.5243 6.49368 56.7897 6.75929C57.0552 7.02489 57.0552 7.42331 56.9224 7.95452L55.4625 14.1962H57.9842L59.046 9.81374C59.5769 7.68891 60.5059 6.6265 61.8331 6.6265C62.2313 6.6265 62.4967 6.7593 62.6295 7.02491C62.8949 7.29051 62.8949 7.82172 62.7622 8.61853L61.435 14.1962H63.9567L65.1512 9.01694C65.4166 7.68892 66.6111 6.6265 67.8056 6.6265C68.2038 6.6265 68.4692 6.7593 68.6019 7.02491C68.8674 7.29051 68.8674 7.82172 68.7346 8.61853L68.071 11.8058C67.8056 13.1338 67.9383 14.1962 68.6019 14.8602C69.2655 15.6571 70.3273 16.0555 71.6545 16.0555C72.7163 16.0555 73.9108 15.7899 75.1053 15.2586L75.238 15.1258L75.7689 12.7354L74.7071 13.3994Z" fill="white"/>
<path d="M30.2455 12.0713C29.98 11.2745 29.5819 10.7433 29.051 10.2121C28.5201 9.68091 27.9892 9.28251 27.1929 9.01691C26.5293 8.75131 25.6002 8.6185 24.6712 8.6185C23.7421 8.6185 22.9458 8.75131 22.1495 9.01691C21.4859 9.28251 20.8223 9.68091 20.2914 10.2121C19.7605 10.7433 19.3623 11.4073 19.0969 12.0713C18.8315 12.8682 18.6987 13.665 18.6987 14.4618C18.6987 15.3914 18.8315 16.1882 19.0969 16.985C19.3623 17.7818 19.7605 18.313 20.2914 18.8442C20.8223 19.3755 21.3532 19.7739 22.1495 20.0395C22.8131 20.3051 23.7421 20.4379 24.6712 20.4379C25.6002 20.4379 26.3966 20.3051 27.1929 20.0395C27.8565 19.7739 28.5201 19.3755 29.051 18.8442C29.5819 18.313 29.98 17.649 30.2455 16.985C30.5109 16.1882 30.6436 15.3914 30.6436 14.4618C30.6436 13.665 30.5109 12.7353 30.2455 12.0713ZM26.3966 18.313C25.9984 18.5787 25.4675 18.7114 24.8039 18.7114C24.273 18.7114 23.7421 18.5787 23.2113 18.313C22.8131 18.0474 22.4149 17.7818 22.1495 17.3834C21.884 16.985 21.6186 16.5866 21.4859 16.0554C21.3532 15.5242 21.3532 14.993 21.3532 14.4618C21.3532 13.9306 21.3532 13.3994 21.4859 13.001C21.6186 12.4698 21.884 12.0714 22.1495 11.6729C22.4149 11.2745 22.8131 11.0089 23.2113 10.7433C23.6094 10.4777 24.1403 10.3449 24.8039 10.3449C25.3348 10.3449 25.8657 10.4777 26.3966 10.7433C26.7947 11.0089 27.1929 11.2745 27.4583 11.6729C27.7238 12.0714 27.9892 12.4698 28.1219 13.001C28.2547 13.5322 28.2547 14.0634 28.2547 14.4618C28.2547 14.993 28.2547 15.5242 28.1219 16.0554C27.9892 16.5866 27.7238 16.985 27.4583 17.3834C27.1929 17.7818 26.7947 18.1802 26.3966 18.313Z" fill="white"/>
<path d="M384.346 27.2108C384.214 27.2108 383.948 27.078 383.683 26.6796L383.019 24.8203H378.905L378.241 26.6796C378.108 27.078 377.843 27.2108 377.577 27.2108C377.312 27.2108 376.914 26.9452 376.914 26.5468C376.914 26.414 376.914 26.2812 377.047 26.1484L380.232 18.1802C380.497 17.5162 380.763 17.5162 381.028 17.5162C381.294 17.5162 381.559 17.649 381.825 18.1802L385.01 26.1484C385.143 26.2812 385.143 26.414 385.143 26.5468C385.01 26.9452 384.612 27.2108 384.346 27.2108ZM382.488 23.4923L380.895 19.2426L379.303 23.4923H382.488ZM392.044 18.5786C392.177 18.4458 392.177 18.1802 392.177 18.1802C392.177 17.7818 391.911 17.5162 391.513 17.5162C391.248 17.5162 390.982 17.649 390.85 18.0474L388.062 25.3515L385.275 18.0474C385.143 17.649 384.877 17.5162 384.612 17.5162C384.213 17.5162 383.948 17.7818 383.948 18.1802C383.948 18.313 383.948 18.4458 384.081 18.5786L387.133 26.414C387.399 27.078 387.797 27.2108 388.062 27.2108C388.328 27.2108 388.726 27.078 388.991 26.414L392.044 18.5786ZM398.547 22.6955C399.078 22.6955 399.211 22.2971 399.211 22.1643C399.211 22.0315 399.078 21.6331 398.547 21.6331H394.566V18.8442H398.813C399.344 18.8442 399.476 18.4458 399.476 18.313C399.476 18.1802 399.344 17.7818 398.813 17.7818H394.035C393.504 17.7818 393.239 18.0474 393.239 18.5786V26.5468C393.239 27.078 393.504 27.3436 394.035 27.3436H398.946C399.476 27.3436 399.609 26.9452 399.609 26.8124C399.609 26.6796 399.476 26.2812 398.946 26.2812H394.566V23.0939H398.547V22.6955ZM419.65 27.2108C419.517 27.2108 419.252 27.078 418.987 26.6796L418.323 24.8203H414.209L413.545 26.6796C413.412 27.078 413.147 27.2108 412.881 27.2108C412.616 27.2108 412.218 26.9452 412.218 26.5468C412.218 26.414 412.218 26.2812 412.35 26.1484L415.536 18.1802C415.801 17.5162 416.067 17.5162 416.332 17.5162C416.598 17.5162 416.863 17.649 417.128 18.1802L420.314 26.1484C420.446 26.2812 420.446 26.414 420.446 26.5468C420.314 26.9452 420.048 27.2108 419.65 27.2108ZM417.925 23.4923L416.332 19.2426L414.739 23.4923H417.925ZM410.492 27.2108C410.758 27.2108 411.156 27.078 411.156 26.414V18.313C411.156 17.5162 410.625 17.3834 410.36 17.3834C410.094 17.3834 409.696 17.5162 409.431 18.1802L406.245 25.3515L403.06 18.1802C402.794 17.5162 402.396 17.3834 402.131 17.3834C401.865 17.3834 401.335 17.5162 401.335 18.313V26.414C401.335 27.078 401.733 27.078 401.998 27.078C402.264 27.078 402.662 26.9452 402.662 26.414V20.3051L405.449 26.5468C405.714 27.078 405.98 27.2108 406.245 27.2108C406.511 27.2108 406.776 27.078 407.042 26.5468L409.829 20.1722V26.414C409.829 27.078 410.227 27.2108 410.492 27.2108ZM428.675 26.5468C428.675 26.414 428.675 26.1483 428.41 26.0155L424.295 22.0315L428.144 18.7114C428.41 18.4458 428.41 18.313 428.41 18.1802C428.41 17.7818 428.144 17.649 427.746 17.649C427.613 17.649 427.348 17.7818 427.215 17.9146L422.835 21.8987V18.1802C422.835 17.5162 422.437 17.3834 422.172 17.3834C421.906 17.3834 421.508 17.5162 421.508 18.1802V26.414C421.508 27.078 421.906 27.2108 422.172 27.2108C422.437 27.2108 422.835 27.078 422.835 26.414V22.1643L427.481 26.9452C427.613 27.2108 427.879 27.2108 428.012 27.2108C428.41 27.2108 428.675 26.8124 428.675 26.5468ZM435.311 22.6955C435.842 22.6955 435.975 22.2971 435.975 22.1643C435.975 22.0315 435.842 21.6331 435.311 21.6331H431.33V18.8442H435.577C436.108 18.8442 436.24 18.4458 436.24 18.313C436.24 18.1802 436.108 17.7818 435.577 17.7818H430.799C430.268 17.7818 430.002 18.0474 430.002 18.5786V26.5468C430.002 27.078 430.268 27.3436 430.799 27.3436H435.709C436.24 27.3436 436.373 26.9452 436.373 26.8124C436.373 26.6796 436.24 26.2812 435.709 26.2812H431.33V23.0939H435.311V22.6955ZM440.62 22.8283H439.16V26.414C439.16 27.078 438.762 27.2108 438.497 27.2108C438.231 27.2108 437.833 27.078 437.833 26.414V18.313C437.833 17.7818 438.098 17.5162 438.629 17.5162H440.886C442.744 17.5162 444.204 18.1802 444.204 20.1722C444.204 21.5003 443.275 22.4299 441.947 22.6955L444.204 26.0155C444.336 26.1483 444.336 26.414 444.336 26.414C444.336 26.8124 444.071 27.078 443.673 27.078C443.54 27.078 443.275 26.9452 443.142 26.6796L440.62 22.8283ZM439.16 21.6331H440.753C441.947 21.6331 443.009 21.2347 443.009 20.0394C443.009 18.8442 442.08 18.5786 440.886 18.5786H439.293V21.6331H439.16ZM377.445 17.5162C377.047 17.3834 376.648 17.5162 376.516 17.9146L373.861 25.0859L372.003 17.9146C371.87 17.649 371.605 17.3834 371.34 17.3834C371.074 17.3834 370.809 17.5162 370.676 17.9146L368.818 25.0859L366.163 17.9146C366.031 17.5162 365.633 17.3834 365.234 17.5162C364.836 17.649 364.703 18.0474 364.836 18.4458L367.889 26.5468C368.021 26.8124 368.154 26.9452 368.42 27.078C368.951 27.2108 369.481 27.078 369.614 26.5468V26.414L371.207 20.1722L372.799 26.414V26.5468C372.932 27.078 373.596 27.3436 373.994 27.078C374.259 26.9452 374.392 26.8124 374.525 26.5468L377.577 18.4458C377.976 18.0474 377.843 17.649 377.445 17.5162Z" fill="white"/>
<path d="M417.792 12.603C417.659 12.603 417.526 12.603 417.394 12.603C416.863 12.603 416.332 12.2046 416.199 11.6734L414.341 5.83005L412.483 11.6734C412.35 12.2046 411.819 11.6734 411.289 11.6734C410.758 11.6734 410.227 12.2046 410.094 11.6734L408.236 5.83005L406.378 11.6734C406.245 12.2046 405.714 12.603 405.183 12.603C405.051 12.603 404.918 12.603 404.785 12.603C404.122 12.3374 403.723 11.6734 403.989 11.0093L407.042 1.58039C407.174 1.04918 407.705 1.58039 408.236 1.58039C408.767 1.58039 409.298 1.04918 409.43 1.58039L411.289 7.42367L413.147 1.58039C413.279 1.04918 413.81 1.58039 414.341 1.58039C414.872 1.58039 415.403 1.04918 415.536 1.58039L418.588 11.0093C418.854 11.6734 418.456 12.3374 417.792 12.603ZM404.387 0.783569C404.254 0.783569 404.122 0.783569 403.989 0.783569C403.458 0.783569 402.927 1.18199 402.794 1.7132L400.936 7.55648L399.078 1.7132C398.945 1.18199 398.415 1.7132 397.884 1.7132C397.353 1.7132 396.822 1.18199 396.689 1.7132L394.831 7.55648L392.973 1.7132C392.84 1.18199 392.309 0.783569 391.779 0.783569C391.646 0.783569 391.513 0.783569 391.38 0.783569C390.717 1.04917 390.319 1.7132 390.584 2.37721L393.637 11.8061C393.769 12.3374 394.3 11.8061 394.831 11.8061C395.362 11.8061 395.893 12.3374 396.026 11.8061L397.884 5.96286L399.742 11.8061C399.875 12.3374 400.405 11.8061 400.936 11.8061C401.467 11.8061 401.998 12.3374 402.131 11.8061L405.183 2.37721C405.449 1.7132 405.051 0.916371 404.387 0.783569Z" fill="white"/>
<path d="M414.341 0.65036C414.872 0.65036 415.403 1.04918 415.536 1.58039C415.668 1.84599 415.668 2.11119 415.536 2.37679L414.341 5.96245L413.147 2.37679C413.014 2.11119 413.014 1.84599 413.147 1.58039C413.279 1.04918 413.81 0.65036 414.341 0.65036ZM406.909 1.57997C406.776 1.84558 406.776 2.11119 406.909 2.37679L408.103 5.96245L409.298 2.37679C409.43 2.11119 409.43 1.84558 409.298 1.57997C409.165 1.04876 408.634 0.65036 408.103 0.65036C407.572 0.65036 407.041 1.04876 406.909 1.57997ZM400.936 12.6026C401.467 12.6026 401.998 12.2042 402.131 11.673C402.263 11.4074 402.263 11.1417 402.131 10.8761L400.936 7.29048L399.742 10.8761C399.609 11.1417 399.609 11.4074 399.742 11.673C399.875 12.2042 400.405 12.6026 400.936 12.6026ZM394.698 12.6026C395.229 12.6026 395.76 12.2042 395.893 11.673C396.026 11.4074 396.026 11.1417 395.893 10.8761L394.698 7.29048L393.504 10.8761C393.371 11.1417 393.371 11.4074 393.504 11.673C393.769 12.2042 394.167 12.6026 394.698 12.6026Z" fill="white"/>
<path d="M397.884 0.65036C398.415 0.65036 398.946 1.04876 399.078 1.57997C399.211 1.84558 399.211 2.11119 399.078 2.37679L397.884 5.96286L396.689 2.37679C396.557 2.11119 396.557 1.84558 396.689 1.57997C396.822 1.04876 397.353 0.65036 397.884 0.65036ZM411.289 12.6026C411.819 12.6026 412.35 12.2046 412.483 11.6734C412.616 11.4078 412.616 11.1417 412.483 10.8761L411.289 7.29048L410.094 10.8761C409.961 11.1417 409.961 11.4078 410.094 11.6734C410.227 12.2046 410.625 12.6026 411.289 12.6026Z" fill="white"/>
<path d="M259.323 20.9691H256.005V12.8682L253.881 21.1019H251.625L249.501 12.8682V21.1019H246.847V9.68091H251.492L253.085 15.7898L254.677 9.68091H259.323V20.9691Z" fill="white"/>
<path d="M268.879 20.9691H260.252V9.54813H268.879V12.2042H263.702V13.9306H267.817V16.4538H263.702V18.3131H268.879V20.9691Z" fill="white"/>
<path d="M269.675 9.54813H273.922C275.515 9.54813 276.842 9.81374 278.169 11.009C279.364 12.2042 279.895 13.665 279.895 15.3914C279.895 16.8522 279.364 18.4459 278.302 19.5083C277.107 20.7035 275.78 21.1019 274.187 21.1019H269.675V9.54813ZM273.657 18.4459C274.187 18.4459 274.453 18.4459 274.851 18.1803C275.117 18.0475 275.382 17.7818 275.647 17.3834C276.046 16.7194 276.178 15.9226 276.178 15.1258C276.178 14.329 275.913 13.3994 275.515 12.7354C274.984 12.0714 274.453 12.0714 273.657 12.0714H273.258V18.3131H273.657V18.4459Z" fill="white"/>
<path d="M284.009 20.9691H280.425V9.54813H284.009V20.9691Z" fill="white"/>
<path d="M291.176 18.7115H288.123L287.46 20.9691H284.54L288.123 9.54813H291.839L295.423 20.9691H291.839L291.176 18.7115ZM290.645 16.321L289.716 13.001L288.787 16.321H290.645Z" fill="white"/>
<path d="M304.713 16.8522C304.448 19.5083 302.59 21.2347 299.935 21.2347C296.485 21.2347 294.626 18.7115 294.626 15.5242C294.626 12.2042 296.219 9.41531 299.803 9.41531C302.722 9.41531 304.448 11.1417 304.581 14.0634L301.263 14.1962C301.263 13.2666 300.864 12.0714 299.803 12.0714C298.21 12.0714 298.21 14.4618 298.21 15.5242C298.21 16.7194 298.343 18.5787 299.803 18.5787C300.864 18.5787 301.263 17.649 301.395 16.7194L304.713 16.8522Z" fill="white"/>
<path d="M316.127 15.3914C316.127 18.7115 314.136 21.2347 310.686 21.2347C307.235 21.2347 305.244 18.5787 305.244 15.3914C305.244 11.9386 307.235 9.41531 310.686 9.41531C314.136 9.41531 316.127 11.9386 316.127 15.3914ZM308.96 15.3914C308.96 16.4538 309.093 18.5787 310.686 18.5787C312.278 18.5787 312.411 16.4538 312.411 15.3914C312.411 14.329 312.278 12.0714 310.686 12.0714C309.093 11.9386 308.96 14.1962 308.96 15.3914Z" fill="white"/>
<path d="M329.134 20.9691H325.816V12.8682L323.692 21.1019H321.436L319.313 12.8682V21.1019H316.658V9.68091H321.303L322.896 15.7898L324.489 9.68091H329.134V20.9691Z" fill="white"/>
<path d="M192.696 29.4688L189.644 17.7822L195.616 28.2736L195.484 28.4064C194.687 28.9376 193.758 29.2032 192.829 29.4688H192.696ZM190.573 20.0398L192.962 29.0704C193.758 28.8048 194.554 28.5392 195.218 28.1408L190.573 20.0398Z" fill="white"/>
<path d="M187.388 29.4688H187.255C186.326 29.2032 185.529 28.8048 184.6 28.4064L184.468 28.2736L189.909 18.8446H190.175V19.1102L187.388 29.4688ZM184.999 28.1408C185.662 28.5392 186.458 28.8048 187.255 29.0704L189.644 20.0398L184.999 28.1408Z" fill="white"/>
<path d="M190.042 29.7344H189.909V17.6494L192.962 29.336H192.829C191.9 29.7344 190.971 29.7344 190.042 29.7344ZM190.175 20.1726V29.4688C190.971 29.4688 191.767 29.336 192.564 29.2032L190.175 20.1726Z" fill="white"/>
<path d="M190.042 29.7344C189.113 29.7344 188.184 29.6016 187.255 29.336H187.122L190.175 17.6494V29.7344H190.042ZM187.52 29.2032C188.317 29.336 189.113 29.4688 189.909 29.4688V20.1726L187.52 29.2032Z" fill="white"/>
<path d="M195.351 28.4064L189.909 18.9774L190.042 18.7118L197.873 26.5472L197.74 26.68C197.076 27.344 196.28 27.8751 195.484 28.4064L195.351 28.4064ZM190.838 19.9071L195.484 28.008C196.147 27.6096 196.811 27.0784 197.342 26.5472L190.838 19.9071Z" fill="white"/>
<path d="M182.477 26.68C181.681 25.8831 181.15 25.0864 180.619 24.2895L180.486 24.1567L189.777 18.7118L189.909 18.579L190.042 18.9775L189.909 18.9774L182.477 26.68ZM181.017 24.2895C181.415 24.9535 181.946 25.6176 182.477 26.2816L189.793 19.1102L181.017 24.2895Z" fill="white"/>
<path d="M190.042 19.1102L180.486 13.6654L180.619 13.5325C181.15 12.7357 181.681 11.9389 182.344 11.2749L182.477 11.1421L190.175 18.8446L190.042 19.1102ZM181.017 13.5325L189.113 18.1806L182.477 11.6733C181.946 12.2045 181.415 12.8685 181.017 13.5325Z" fill="white"/>
<path d="M190.838 19.9071L190.042 19.1102L182.344 11.4077L182.477 11.2749C183.14 10.6109 183.937 10.0797 184.733 9.54849L184.866 9.41568L190.838 19.9071ZM182.742 11.4077L189.246 17.915L184.6 9.81409C183.937 10.3453 183.273 10.8765 182.742 11.4077Z" fill="white"/>
<path d="M190.573 20.0398L184.6 9.54848L184.733 9.41567C185.529 8.88446 186.458 8.61888 187.388 8.35327H187.52L190.573 20.0398ZM184.999 9.81408L189.644 17.915L187.255 8.88447C186.458 9.01728 185.662 9.41568 184.999 9.81408Z" fill="white"/>
<path d="M190.706 19.1102H190.042L179.557 16.3214V16.1886C179.822 15.259 180.221 14.4622 180.619 13.5325L180.751 13.3997L190.706 19.1102ZM179.955 16.0558L188.98 18.4462L180.884 13.7981C180.486 14.5949 180.221 15.2589 179.955 16.0558Z" fill="white"/>
<path d="M190.042 19.1102H179.159V18.9774C179.159 18.0478 179.292 17.1182 179.557 16.1886L179.557 16.0558L190.307 18.9774L190.042 19.1102ZM179.557 18.8446H188.847L179.822 16.4542C179.69 17.1182 179.557 18.0478 179.557 18.8446Z" fill="white"/>
<path d="M184.733 28.4064L184.6 28.2736C183.804 27.7424 183.008 27.2112 182.344 26.5472L182.211 26.4144L189.909 18.7118H190.44L190.175 18.9774L184.733 28.4064ZM182.742 26.5472C183.273 27.0784 183.937 27.6096 184.6 28.008L189.246 19.9071L182.742 26.5472Z" fill="white"/>
<path d="M180.751 24.5551L180.619 24.4223C180.088 23.6255 179.822 22.6959 179.557 21.7663V21.6335L190.042 18.8446L190.706 18.8446L190.175 19.1102L180.751 24.5551ZM179.955 21.8991C180.221 22.6959 180.486 23.4927 180.884 24.1567L189.612 19.2637L179.955 21.8991Z" fill="white"/>
<path d="M179.69 21.899V21.7662C179.424 20.8366 179.292 19.907 179.292 18.9774V18.8446L190.388 19.0577L179.69 21.899ZM179.557 19.1102C179.557 19.907 179.69 20.7038 179.822 21.5006L188.847 19.1102H179.557Z" fill="white"/>
<path d="M189.644 20.0398L192.696 8.35327H192.829C193.758 8.61888 194.554 9.01727 195.484 9.41567L195.616 9.54848L189.644 20.0398ZM192.962 8.88447L190.573 17.915L195.218 9.81408C194.422 9.41568 193.758 9.01728 192.962 8.88447Z" fill="white"/>
<path d="M189.246 19.9071L195.218 9.41568L195.351 9.54849C196.147 10.0797 196.943 10.6109 197.607 11.2749L197.74 11.4077L189.246 19.9071ZM195.484 9.9469L190.838 18.0478L197.342 11.5405C196.811 10.8765 196.147 10.3453 195.484 9.9469Z" fill="white"/>
<path d="M197.607 26.68L190.042 19.1102L190.307 18.8446C190.971 19.5086 191.635 20.0399 192.431 20.4383C193.227 20.8367 194.024 21.2351 194.953 21.5007L199.598 24.1567L199.465 24.2895C198.934 25.2192 198.403 26.016 197.607 26.68ZM192.033 20.7039L197.607 26.2816C198.138 25.7504 198.669 25.0863 199.067 24.4223L194.82 21.8991C193.891 21.6335 193.095 21.2351 192.165 20.8367C192.165 20.7039 192.033 20.7039 192.033 20.7039Z" fill="white"/>
<path d="M199.332 24.5551L193.625 21.2351L194.82 21.5007C195.749 21.7663 196.545 21.8991 197.474 21.8991C198.403 21.8991 199.332 21.7663 200.129 21.5007L200.394 21.3679L200.262 21.6335C199.996 22.5631 199.598 23.3599 199.2 24.2895L199.332 24.5551ZM195.749 22.0319L199.2 24.0239C199.598 23.3599 199.863 22.6959 200.129 21.8991C199.332 22.0319 198.403 22.1647 197.607 22.1647C196.943 22.2975 196.413 22.1647 195.749 22.0319Z" fill="white"/>
<path d="M189.909 20.1726L189.909 8.08765H190.042C190.971 8.08765 191.9 8.22045 192.829 8.48606H192.962L189.909 20.1726ZM190.175 8.48606V17.7822L192.564 8.75166C191.767 8.61886 190.971 8.48606 190.175 8.48606Z" fill="white"/>
<path d="M190.175 20.1726L187.122 8.48606H187.255C188.184 8.22045 189.113 8.08765 190.042 8.08765H190.175L190.175 20.1726ZM187.52 8.75166L189.909 17.7822V8.48606C189.113 8.48606 188.317 8.61886 187.52 8.75166Z" fill="white"/>
<path d="M197.607 22.2971H197.474V10.2121L200.527 21.8987H200.394C199.465 22.1643 198.536 22.2971 197.607 22.2971ZM197.74 12.6026V21.8987C198.536 21.8987 199.332 21.7659 200.129 21.6331L197.74 12.6026Z" fill="white"/>
<path d="M200.262 21.8987L197.209 10.2121L203.181 20.7034L203.049 20.8362C202.252 21.3674 201.323 21.6331 200.394 21.8987L200.262 21.8987ZM198.005 12.6026L200.394 21.6331C201.191 21.3675 201.987 21.1018 202.651 20.7034L198.005 12.6026Z" fill="white"/>
<path d="M197.607 22.2971C196.678 22.2971 195.749 22.1647 194.82 21.8991L194.687 21.8987L197.607 11.1418L197.873 11.4074V22.2971H197.607ZM195.085 21.6331C195.882 21.7659 196.678 21.8991 197.474 21.8991L197.474 12.6026L195.085 21.6331Z" fill="white"/>
<path d="M194.953 21.8987L194.82 21.8991C193.891 21.6335 193.095 21.2351 192.165 20.8367L192.033 20.7039L198.005 10.2121L194.953 21.8987ZM192.431 20.5706C193.095 20.969 193.891 21.2346 194.687 21.5002L197.076 12.4697L192.431 20.5706Z" fill="white"/>
<path d="M192.298 20.8363L192.166 20.7035C191.369 20.1723 190.573 19.6415 189.909 18.9774L189.777 18.8443L198.271 10.3449L192.298 20.8363ZM190.307 18.9774C190.838 19.5086 191.502 20.0395 192.298 20.4379L196.944 12.337L190.307 18.9774Z" fill="white"/>
<path d="M207.959 14.329L197.474 11.5402L197.342 11.5405L197.342 11.1418H208.225V11.2746C208.225 12.2042 208.092 13.1338 207.827 14.0634L207.959 14.329ZM198.802 11.5402L207.827 13.9306C207.959 13.1338 208.092 12.337 208.092 11.5402H198.802Z" fill="white"/>
<path d="M197.607 11.673L197.342 11.5405L200.129 0.915985H200.262C201.191 1.18159 201.987 1.58 202.916 1.97841L203.049 2.1112L197.607 11.673ZM200.527 1.3144L198.138 10.345L202.783 2.24401C201.987 1.8456 201.191 1.58 200.527 1.3144Z" fill="white"/>
<path d="M197.474 11.9386V0.517578H197.607C198.536 0.517578 199.465 0.650384 200.394 0.915989H200.527L197.74 11.4077L197.474 11.9386ZM197.74 0.915989V10.2121L200.129 1.18159C199.332 1.04879 198.536 0.915989 197.74 0.915989Z" fill="white"/>
<path d="M197.74 12.6026L194.687 0.915988H194.82C195.749 0.650384 196.678 0.517578 197.607 0.517578H197.74V12.6026ZM195.085 1.18159L197.474 10.2121V0.915988C196.678 0.915988 195.749 1.04879 195.085 1.18159Z" fill="white"/>
<path d="M197.076 12.0714L202.916 1.97841L203.049 2.1112C203.845 2.64241 204.641 3.17361 205.305 3.83762L205.438 3.97043L197.74 11.673L197.076 12.0714ZM203.049 2.3768L198.403 10.4777L204.907 3.97043C204.376 3.30642 203.712 2.77521 203.049 2.3768Z" fill="white"/>
<path d="M197.607 11.5402H197.209L205.172 3.57202L205.305 3.70483C205.969 4.36884 206.499 5.16565 207.03 5.96247L207.163 6.09526L197.607 11.5402ZM205.172 4.10322L198.536 10.7433L206.632 6.09526C206.234 5.29844 205.703 4.63443 205.172 4.10322Z" fill="white"/>
<path d="M206.898 16.985L197.474 11.5402L197.342 11.5405L197.342 11.1418L197.607 11.2749L208.092 14.0634V14.1962C207.827 15.1258 207.428 15.9226 207.03 16.8522L206.898 16.985ZM198.669 11.9386L206.765 16.5866C207.163 15.9226 207.428 15.1258 207.694 14.329L198.669 11.9386Z" fill="white"/>
<path d="M197.076 11.5402L197.474 11.2746L207.959 8.48569V8.6185C208.225 9.54812 208.358 10.4777 208.358 11.4073V11.5402H197.076ZM207.827 8.8841L198.802 11.2746H208.092C208.092 10.4777 207.959 9.68092 207.827 8.8841Z" fill="white"/>
<path d="M196.413 11.9386L206.898 5.96243L207.03 6.09522C207.561 6.89204 207.827 7.82166 208.092 8.75128V8.8841L196.413 11.9386ZM206.765 6.22803L198.669 10.8761L207.694 8.48568C207.428 7.68886 207.163 7.02485 206.765 6.22803Z" fill="white"/>
<path d="M198.403 12.337L189.909 3.83762L190.042 3.70483C190.706 3.04081 191.502 2.5096 192.298 1.97839L192.431 1.84558L198.403 12.337ZM190.307 3.83762L196.811 10.3449L192.165 2.24399C191.502 2.7752 190.838 3.30641 190.307 3.83762Z" fill="white"/>
<path d="M198.005 12.6026L192.033 2.1112L192.166 1.97841C192.962 1.4472 193.891 1.18159 194.82 0.915988L194.953 0.915985V1.0488L198.005 12.6026ZM192.431 2.24401L197.076 10.3449L194.687 1.3144C193.891 1.58 193.227 1.8456 192.431 2.24401Z" fill="white"/>
<path d="M197.474 11.5402C196.811 10.8762 196.147 10.3449 195.351 9.94654C194.555 9.54813 193.758 9.14972 192.829 8.88412L188.184 6.22807L188.317 6.09526C188.847 5.29845 189.378 4.50164 190.042 3.83762L190.175 3.70483L197.873 11.4074L197.474 11.5402ZM192.829 8.48606C193.758 8.75166 194.555 9.14972 195.484 9.54813C195.484 9.54813 195.616 9.54813 195.616 9.68094L190.042 4.10322C189.511 4.63443 188.98 5.29846 188.582 5.96247L192.829 8.48606Z" fill="white"/>
<path d="M193.891 9.14969L192.696 8.88409C191.767 8.61848 190.838 8.48568 190.042 8.48568C189.113 8.48568 188.184 8.61848 187.388 8.88409L187.122 9.0169L187.255 8.75128C187.52 7.82166 187.918 7.02488 188.317 6.09526L188.449 5.96243L193.891 9.14969ZM188.449 6.22803C188.051 6.89205 187.786 7.55646 187.52 8.35327C188.317 8.22047 189.246 8.08765 190.042 8.08765C190.706 8.08765 191.236 8.08727 191.767 8.22007L188.449 6.22803Z" fill="white"/>
<path d="M205.172 19.2427L197.474 11.5402L197.607 11.2749L207.163 16.7194L207.03 16.8522C206.499 17.649 205.969 18.4459 205.172 19.2427ZM198.536 12.2042L205.172 18.8443C205.703 18.3131 206.234 17.6491 206.632 16.8522L198.536 12.2042Z" fill="white"/>
<path d="M202.916 20.8363L196.944 10.3449L205.438 18.8443L205.305 18.9771C204.641 19.6411 203.845 20.1723 203.049 20.7035L202.916 20.8363ZM198.403 12.337L203.049 20.4379C203.712 20.0395 204.376 19.5083 204.907 18.9771L198.403 12.337Z" fill="white"/>
<path d="M116.116 18.9775H114.656V14.0638L112.002 17.251C111.869 17.3838 111.736 17.3838 111.604 17.251L108.949 14.0638V18.9775H107.489V12.2046C107.489 11.8062 107.887 11.4077 108.286 11.4077C108.551 11.4077 108.816 11.5406 108.949 11.8062L111.736 15.259L114.656 11.6734C114.789 11.5406 115.054 11.4077 115.187 11.4077C115.585 11.4077 115.983 11.8062 115.983 12.2046V18.9775H116.116Z" fill="white"/>
<path d="M153.942 18.9771H155.667L156.596 16.985H159.914L160.976 18.9771H162.701L158.985 11.8057C158.852 11.5401 158.587 11.4073 158.322 11.4073C158.056 11.4073 157.791 11.5401 157.658 11.8057L153.942 18.9771ZM158.189 13.5322L159.251 15.657H157.127L158.189 13.5322Z" fill="white"/>
<path d="M127.132 18.9771L122.089 13.9306V18.9771H120.629V12.2042C120.629 11.8058 121.027 11.4074 121.425 11.4074C121.69 11.4074 121.823 11.5402 122.089 11.673L126.734 16.321V11.8058C126.734 11.5402 126.999 11.2746 127.265 11.2746H127.796C128.061 11.2746 128.327 11.5402 128.327 11.8058V18.9771H127.132Z" fill="white"/>
<path d="M134.432 11.5401C133.901 11.4073 133.37 11.4073 132.574 11.4073H130.45C130.052 11.4073 129.654 11.8057 129.654 12.2041V18.9771H132.175C132.972 18.9771 133.635 18.8443 134.299 18.7115C136.29 18.1802 137.352 16.8522 137.352 15.1258C137.352 13.2666 136.29 12.0713 134.432 11.5401ZM134.034 17.3834C133.503 17.5162 132.972 17.5162 132.308 17.5162H131.379V12.8682H132.574C133.237 12.8682 133.768 12.8682 134.166 13.001C135.361 13.2666 135.892 13.9306 135.892 15.1258C135.759 16.1882 135.228 16.985 134.034 17.3834Z" fill="white"/>
<path d="M168.01 15.9226C169.205 15.5242 169.736 14.8602 169.736 13.665C169.736 12.2042 168.541 11.2746 166.683 11.2746H164.161C163.763 11.2746 163.365 11.673 163.365 12.0714V18.8443H164.825V16.0554H166.152L168.01 18.8443H169.868L168.01 15.9226ZM164.958 14.7274V12.8682H166.816C167.347 12.8682 168.143 13.001 168.143 13.7978C168.143 14.1962 168.01 14.7274 166.55 14.7274H164.958Z" fill="white"/>
<path d="M119.036 18.9771V11.9385C119.036 11.6729 118.771 11.4073 118.505 11.4073H117.974C117.709 11.4073 117.443 11.6729 117.443 11.9385V18.9771H119.036Z" fill="white"/>
<path d="M151.42 18.9771V15.7898H147.438V18.9771H145.979V11.9385C145.979 11.6729 146.244 11.4073 146.509 11.4073H147.04C147.306 11.4073 147.571 11.6729 147.571 11.9385V14.4618H151.553V11.9385C151.553 11.6729 151.818 11.4073 152.084 11.4073H152.615C152.88 11.4073 153.145 11.6729 153.145 11.9385V18.9771H151.42Z" fill="white"/>
<path d="M141.731 14.4618C140.67 14.329 140.006 14.1962 140.006 13.5322C140.006 13.001 140.537 12.7354 141.466 12.7354C142.528 12.7354 143.324 13.1338 143.722 13.2666C143.855 13.2666 143.855 13.2666 143.855 13.1338L144.253 12.2042C144.253 12.2042 144.253 12.2042 144.253 12.0714C144.253 11.9386 144.253 11.9386 144.12 11.9386C143.324 11.5402 142.262 11.2746 141.333 11.2746C139.475 11.2746 138.413 12.0714 138.413 13.5322C138.413 14.1962 138.679 14.7274 139.077 15.1258C139.608 15.5242 140.537 15.657 141.333 15.7898C142.395 15.9226 143.059 16.0554 143.059 16.5866C143.059 17.5162 141.864 17.5162 141.333 17.5162C140.537 17.5162 139.741 17.2506 139.077 16.8522L138.944 16.7194L138.812 16.8522L138.281 17.7818L138.148 18.1802L138.281 18.313C138.812 18.7114 139.741 19.1098 141.201 19.1098C143.191 19.1098 144.519 18.1802 144.519 16.7194C144.651 14.8602 143.059 14.5946 141.731 14.4618Z" fill="white"/>
<path d="M176.239 15.5242C176.239 15.657 176.106 15.7898 175.974 15.7898H172.655V17.5162H176.637V18.9771H171.063V12.2041C171.063 11.8057 171.461 11.4073 171.859 11.4073H176.239C176.372 11.4073 176.504 11.5401 176.504 11.6729V12.4697C176.504 12.6025 176.372 12.7353 176.239 12.7353H172.655V14.329H175.974C176.106 14.329 176.239 14.4618 176.239 14.5946V15.5242Z" fill="white"/>
<path d="M190.042 29.9996C183.937 29.9996 178.893 25.086 178.893 18.8443C178.893 12.7354 183.804 7.68887 190.042 7.68887C192.962 7.68887 195.749 8.88409 197.873 10.8761L197.209 11.5402C195.351 9.68093 192.696 8.61849 190.042 8.61849C184.468 8.61849 179.955 13.1337 179.955 18.7114C179.955 24.2891 184.468 28.8044 190.042 28.8044C194.687 28.8044 198.802 25.6172 199.863 21.1019L200.792 21.3675C199.598 26.5468 195.218 29.9996 190.042 29.9996Z" fill="white"/>
<path d="M190.042 19.9067C189.511 19.9067 189.113 19.5083 189.113 18.9771C189.113 18.4459 189.511 18.0475 190.042 18.0475C190.573 18.0475 190.971 18.4459 190.971 18.9771C190.971 19.5083 190.573 19.9067 190.042 19.9067Z" fill="white"/>
<path d="M197.607 22.4299C194.687 22.4299 191.9 21.3675 189.909 19.2427L190.573 18.5786C192.431 20.4379 194.953 21.5003 197.607 21.5003C198.536 21.5003 199.465 21.3675 200.262 21.1019C204.641 19.9067 207.694 15.9226 207.694 11.2745C207.694 5.69684 203.181 1.18156 197.607 1.18156C192.962 1.18156 188.848 4.36882 187.786 8.88409L186.857 8.61849C188.051 3.57201 192.564 0.119141 197.607 0.119141C203.712 0.119141 208.756 5.03283 208.756 11.2745C208.756 16.321 205.438 20.7035 200.527 22.0315C199.598 22.2971 198.536 22.4299 197.607 22.4299Z" fill="white"/>
<path d="M197.607 12.2042C197.076 12.2042 196.811 11.8057 196.811 11.4073C196.811 10.8761 197.209 10.6105 197.607 10.6105C198.138 10.6105 198.403 11.0089 198.403 11.4073C198.403 11.8057 198.005 12.2042 197.607 12.2042ZM197.607 11.2749C197.474 11.2749 197.474 11.2749 197.607 11.2749C197.474 11.4077 197.607 11.5402 197.607 11.5402C197.607 11.4074 197.74 11.4077 197.607 11.2749Z" fill="white"/>
<path d="M197.304 11.0462L189.729 18.6794L190.388 19.3344L197.963 11.7012L197.304 11.0462Z" fill="white"/>
</svg>
